<?xml version="1.0" standalone="no"?>
<!DOCTYPE svg PUBLIC "-//W3C//DTD SVG 20010904//EN"
 "http://www.w3.org/TR/2001/REC-SVG-20010904/DTD/svg10.dtd">
<svg version="1.0" xmlns="http://www.w3.org/2000/svg"
 width="564.000000pt" height="418.000000pt" viewBox="0 0 564.000000 418.000000"
 preserveAspectRatio="xMidYMid meet">

<g transform="translate(0.000000,418.000000) scale(0.100000,-0.100000)"
fill="#000000" stroke="none">
<path d="M0 3020 c0 -638 3 -1160 8 -1161 4 0 30 -2 57 -3 28 -1 56 -5 63 -9
7 -5 12 -4 12 2 0 14 36 14 61 1 24 -14 26 5 2 19 -10 6 -13 11 -8 11 6 0 19
-6 30 -14 23 -15 95 -29 95 -18 0 4 -7 19 -16 32 -11 18 -8 16 10 -5 14 -16
26 -34 26 -40 0 -5 9 8 20 30 11 22 17 31 14 20 -3 -11 -8 -29 -11 -40 -4 -16
-3 -17 6 -5 10 13 11 13 11 0 0 -13 1 -13 10 0 5 8 10 10 10 3 0 -6 11 -10 25
-8 14 1 25 -2 25 -6 0 -5 3 -8 8 -7 4 1 19 -2 35 -6 17 -5 33 -4 42 4 23 19
48 -11 36 -42 -6 -13 -13 -44 -16 -70 -5 -39 -10 -48 -26 -48 -10 0 -28 -9
-40 -21 -16 -16 -29 -20 -50 -15 -16 3 -29 1 -29 -4 0 -6 -13 -10 -30 -10 -18
0 -30 -5 -30 -13 0 -15 -79 -21 -81 -6 -7 53 -6 54 46 52 42 -2 47 0 30 9 -11
6 -23 16 -27 22 -4 6 -13 5 -25 -4 -16 -13 -16 -12 1 8 19 22 10 32 -11 11 -9
-9 -11 -6 -7 12 5 23 5 23 -7 4 -6 -11 -13 -21 -14 -22 -1 -2 -19 6 -40 17
-22 11 -51 20 -66 20 -15 0 -40 5 -56 11 -43 17 -93 22 -93 10 0 -6 7 -11 16
-11 10 0 14 -5 10 -15 -5 -14 -2 -13 24 0 17 9 30 11 30 6 0 -9 -33 -23 -60
-25 -12 -1 -15 -20 -18 -101 -2 -97 -2 -99 16 -77 13 17 26 22 60 20 25 -1 47
-8 54 -17 10 -13 10 -14 -2 -4 -20 18 -35 16 -20 -2 7 -8 8 -15 3 -15 -6 0
-27 -11 -48 -25 -35 -25 -38 -25 -52 -8 -13 17 -13 16 -4 -4 6 -12 11 -30 10
-40 0 -16 -1 -16 -9 2 -6 13 -9 -9 -9 -67 l-1 -88 44 0 c35 0 46 -4 51 -19 20
-65 74 -87 134 -56 31 15 41 33 41 71 0 15 6 24 15 24 10 0 15 -10 15 -27 0
-46 17 -61 22 -20 2 20 0 33 -4 31 -4 -3 -8 0 -8 5 0 6 7 11 16 11 8 0 12 5 9
10 -11 17 11 11 28 -8 21 -23 22 -72 2 -98 -17 -23 -19 -14 -3 21 8 19 8 31
-1 51 -6 15 -14 24 -17 21 -3 -3 -1 -15 6 -26 9 -18 6 -30 -16 -71 -34 -62
-23 -77 21 -28 l32 38 42 -89 c22 -49 41 -91 41 -93 0 -7 -326 -3 -331 5 -4 5
-4 29 -1 53 4 38 2 44 -14 45 -11 0 -43 2 -71 2 l-53 2 0 -562 0 -563 2820 0
2820 0 0 2090 0 2090 -2820 0 -2820 0 0 -1160z m1945 1060 c-4 -13 0 -31 9
-45 15 -23 15 -25 -2 -25 -24 0 -42 19 -42 45 0 21 17 45 33 45 4 0 5 -9 2
-20z m645 -136 c0 -8 -6 -14 -12 -15 -7 0 -29 -2 -47 -4 -27 -2 -31 -1 -18 7
10 5 15 14 11 20 -4 6 1 8 16 3 14 -5 20 -3 16 3 -4 6 2 8 14 5 11 -3 20 -12
20 -19z m-1613 -20 c-3 -3 -12 -4 -19 -1 -8 3 -5 6 6 6 11 1 17 -2 13 -5z
m1488 -24 c-14 -6 -15 -9 -5 -10 8 -1 3 -6 -13 -12 -15 -5 -25 -13 -22 -18 3
-4 -5 -6 -16 -3 -20 6 -20 7 7 19 16 7 25 13 19 13 -15 2 18 21 35 20 10 0 8
-3 -5 -9z m165 0 c-14 -4 -20 -9 -15 -10 18 -3 -29 -19 -55 -19 l-25 1 28 10
c15 5 27 14 27 19 0 5 15 9 33 8 30 -1 31 -1 7 -9z m103 -25 c-21 -16 -28 -12
-20 9 4 9 13 13 22 10 14 -6 13 -8 -2 -19z m-1908 -13 c-3 -3 -11 0 -18 7 -9
10 -8 11 6 5 10 -3 15 -9 12 -12z m1995 2 c0 -2 -13 -4 -30 -4 -16 0 -30 4
-30 8 0 5 14 7 30 4 17 -2 30 -6 30 -8z m86 2 c16 5 16 4 4 -5 -22 -15 -47
-13 -47 4 0 10 4 12 12 5 7 -6 21 -8 31 -4z m-2032 -5 c4 -5 -3 -7 -14 -4 -23
6 -26 13 -6 13 8 0 17 -4 20 -9z m1795 -2 c-17 -11 -56 -12 -63 -1 -2 4 14 8
36 8 26 1 35 -2 27 -7z m-1519 -33 c0 -13 75 -49 123 -60 36 -8 79 -51 75 -73
-4 -20 -37 -26 -57 -10 -9 7 -7 1 5 -18 17 -28 17 -29 1 -16 -11 9 -21 11 -25
5 -11 -15 -47 -10 -48 6 -1 8 -3 18 -4 23 -1 4 -3 11 -4 16 0 5 -4 13 -8 17
-19 18 -6 25 18 9 17 -11 30 -13 36 -7 6 6 -3 12 -24 17 -18 4 -36 7 -39 7 -3
-1 -6 5 -6 13 0 7 7 11 16 8 11 -3 10 0 -3 11 -14 11 -22 13 -27 5 -4 -7 -8
-5 -12 5 -4 9 -13 16 -21 16 -8 0 -18 5 -22 12 -4 7 -3 8 4 4 7 -4 12 -1 12 8
0 9 -4 16 -10 16 -5 0 -10 5 -10 11 0 8 5 8 15 -1 8 -7 15 -18 15 -24z m-183
17 c-4 -3 -2 -12 4 -20 9 -10 5 -13 -22 -12 -32 1 -32 2 -9 9 14 4 21 8 17 9
-9 1 1 21 10 21 4 0 3 -3 0 -7z m1493 -28 c-39 -29 -35 -31 17 -10 41 18 54
19 33 4 -12 -8 -9 -9 13 -5 15 4 27 3 27 -2 0 -15 45 -8 61 10 16 17 45 26 36
11 -3 -5 -1 -17 4 -28 6 -17 8 -17 8 -2 1 21 21 23 21 2 0 -8 5 -15 11 -15 5
0 7 5 4 10 -3 6 3 10 14 10 11 0 23 -5 27 -11 3 -6 17 -8 29 -5 13 3 26 2 29
-3 10 -15 79 -21 95 -8 12 9 13 9 7 -1 -13 -22 -17 -60 -6 -67 6 -4 43 -1 83
6 39 6 80 12 89 12 9 1 14 5 12 9 -3 4 2 8 11 8 9 0 13 -5 10 -11 -8 -12 79
-8 91 4 4 4 12 7 18 7 6 0 4 -5 -4 -11 -11 -7 -2 -9 34 -7 33 1 51 -2 54 -10
3 -10 7 -10 18 -1 10 8 14 8 14 1 0 -6 7 -9 15 -6 8 4 15 1 15 -6 0 -6 5 -8
11 -4 6 3 14 1 18 -5 6 -10 75 -25 156 -35 11 -2 30 -8 42 -14 13 -7 39 -9 67
-6 25 4 46 3 46 -2 0 -5 11 -10 25 -10 14 -1 25 2 25 7 0 5 -5 9 -12 9 -6 0
-8 3 -4 7 4 5 14 0 21 -11 9 -12 28 -19 57 -20 34 -1 43 -5 42 -18 -1 -10 1
-17 5 -16 3 0 15 0 26 -1 16 -1 17 -3 6 -10 -12 -7 -7 -13 21 -27 l37 -17 -22
-19 c-21 -18 -21 -18 -2 -16 11 2 26 10 33 18 8 8 11 10 8 3 -10 -19 5 -43 28
-44 11 0 15 -3 8 -6 -7 -3 -27 1 -43 7 -23 10 -33 10 -42 1 -9 -9 -8 -14 3
-21 29 -19 75 -9 130 25 30 19 65 35 77 35 32 0 89 25 99 43 15 24 50 30 65
10 11 -15 11 -16 -1 -5 -8 6 -18 12 -23 12 -5 0 2 -9 16 -20 28 -22 92 -27
101 -7 4 7 8 8 11 2 3 -6 24 -10 48 -8 42 2 42 2 7 -6 l-35 -8 40 -3 c22 -1
44 -2 48 -1 16 3 47 -20 41 -31 -4 -6 1 -8 15 -3 31 10 25 -1 -11 -19 -38 -19
-49 -20 -26 -2 17 12 17 14 -1 30 -17 15 -19 15 -25 1 -3 -9 -2 -13 4 -10 6 3
10 -1 10 -9 0 -8 -8 -20 -17 -25 -11 -6 -13 -11 -5 -11 7 0 10 -5 7 -10 -4 -6
-10 -8 -15 -5 -5 3 -11 1 -15 -5 -4 -6 -22 -7 -44 -4 -25 4 -50 1 -72 -9 -19
-9 -54 -18 -79 -21 -25 -3 -58 -8 -75 -11 -16 -3 -43 -7 -60 -9 -55 -8 -106
-24 -125 -41 -17 -15 -20 -15 -42 -1 -29 19 -45 20 -162 9 -74 -7 -91 -12
-107 -32 -10 -12 -23 -20 -28 -17 -16 10 -115 -14 -124 -29 -4 -9 -22 -15 -41
-15 -19 0 -45 -9 -60 -21 -15 -12 -39 -21 -54 -21 -15 0 -42 -8 -60 -19 -21
-12 -52 -19 -83 -19 -28 0 -60 -5 -72 -12 -13 -7 -62 -12 -117 -13 -107 0
-151 -15 -128 -43 11 -13 11 -14 -2 -7 -8 5 -33 10 -55 11 -29 2 -33 0 -16 -5
43 -12 34 -28 -21 -37 -55 -9 -66 -25 -26 -35 l23 -5 -22 -8 c-13 -4 -32 -4
-43 -1 -21 7 -28 -10 -7 -18 6 -3 -4 -6 -23 -6 -27 -1 -32 -4 -20 -12 11 -8 9
-9 -10 -3 -13 4 -42 8 -65 9 -22 1 -58 9 -80 19 -22 9 -51 21 -63 27 -13 5
-26 18 -29 28 -3 12 -12 17 -28 15 -21 -2 -23 0 -15 22 7 17 6 24 -3 25 -6 0
-3 4 8 8 17 7 12 10 -25 20 -25 6 -52 16 -60 21 -67 45 -176 67 -241 50 -24
-7 -70 -13 -102 -13 -47 0 -62 4 -83 24 -20 19 -36 24 -77 24 -29 0 -60 -4
-69 -9 -14 -6 -18 -4 -18 11 0 11 -11 26 -25 33 -14 7 -25 19 -25 26 0 23 -42
53 -94 68 -64 18 -130 18 -198 1 -29 -8 -55 -12 -58 -9 -3 3 9 17 25 30 95 78
96 80 102 122 4 27 1 47 -7 57 -10 12 -10 18 0 30 7 8 16 12 22 9 5 -3 20 2
34 11 14 9 32 14 39 11 8 -3 29 0 47 5 53 16 86 21 201 29 60 5 121 11 135 15
15 3 50 7 77 10 48 5 67 11 127 40 15 7 59 21 97 31 39 9 71 22 71 28 0 6 5 4
10 -4 5 -8 10 -10 10 -5 0 6 14 9 33 7 22 -2 38 2 46 12 12 14 11 16 -5 16
-33 0 2 15 42 18 l38 2 -34 -25z m485 15 c-3 -5 -11 -10 -16 -10 -6 0 -7 5 -4
10 3 6 11 10 16 10 6 0 7 -4 4 -10z m440 -15 c22 -14 36 -25 30 -25 -5 1 -28
12 -50 25 -22 14 -35 25 -30 25 6 -1 28 -12 50 -25z m-410 -53 c-6 -1 -15 -12
-20 -24 -6 -13 -21 -23 -40 -25 -27 -4 -28 -3 -13 14 8 10 13 24 11 31 -3 8 1
10 12 6 11 -5 18 0 22 14 4 19 6 19 22 4 9 -10 12 -18 6 -20z m-1984 10 c-9
-3 -8 -9 5 -23 9 -10 14 -19 10 -19 -3 0 1 -12 10 -27 l16 -28 -19 24 c-13 15
-25 21 -34 17 -8 -4 -6 -1 3 7 13 10 14 17 6 25 -19 19 -18 42 0 34 11 -4 12
-7 3 -10z m54 0 c-3 -3 -11 0 -18 7 -9 10 -8 11 6 5 10 -3 15 -9 12 -12z m84
2 c-12 -15 -11 -16 11 -10 18 5 21 5 10 -3 -8 -5 -11 -13 -7 -17 3 -4 13 -1
21 5 12 10 16 8 22 -11 4 -13 7 -25 6 -28 0 -3 7 -13 15 -22 10 -11 11 -18 5
-18 -6 0 -9 -7 -6 -15 4 -8 1 -15 -4 -15 -6 0 -9 9 -7 20 4 22 -10 28 -18 8
-3 -8 -6 -6 -6 5 -1 9 3 17 7 17 5 0 9 7 9 15 0 9 -5 14 -11 12 -6 -2 -22 7
-36 20 -23 22 -25 22 -35 4 -10 -18 -11 -18 -29 0 -11 11 -15 19 -10 19 6 0
15 -5 22 -12 8 -8 12 -9 12 -1 0 12 27 43 37 43 3 0 -1 -7 -8 -16z m-29 -4 c0
-5 -4 -10 -10 -10 -5 0 -10 5 -10 10 0 6 5 10 10 10 6 0 10 -4 10 -10z m1927
-6 c-3 -3 -12 -4 -19 -1 -8 3 -5 6 6 6 11 1 17 -2 13 -5z m-2143 -13 c3 -4 -6
-6 -19 -3 -14 2 -25 6 -25 8 0 8 39 4 44 -5z m183 -43 c-3 -8 -6 -5 -6 6 -1
11 2 17 5 13 3 -3 4 -12 1 -19z m67 16 c9 -3 16 -10 16 -16 0 -5 -4 -6 -10 -3
-5 3 -10 1 -10 -4 0 -6 -5 -11 -11 -11 -8 0 -8 4 0 14 9 11 9 15 -1 19 -7 3
-10 6 -6 6 3 1 13 -2 22 -5z m-44 -79 c0 -5 -5 -3 -10 5 -5 8 -10 20 -10 25 0
6 5 3 10 -5 5 -8 10 -19 10 -25z m278 -2 c14 -13 31 -23 38 -23 7 0 24 -15 39
-34 20 -26 24 -40 18 -67 -6 -35 -18 -49 -42 -49 -8 0 -3 8 10 19 l24 20 -38
-3 c-35 -3 -37 -2 -22 14 12 13 13 20 5 25 -6 4 -14 4 -17 1 -3 -3 -14 -1 -24
5 -13 6 -19 6 -19 -1 0 -5 -7 -10 -15 -10 -8 0 -15 4 -15 8 0 5 -25 7 -55 4
-38 -3 -55 -1 -55 7 0 7 -4 9 -10 6 -5 -3 -10 -1 -10 4 0 20 -3 26 -19 38 -9
7 -11 13 -5 13 6 0 17 -7 24 -15 7 -8 9 -15 4 -15 -12 -1 38 -29 51 -29 6 0 1
5 -10 11 -19 12 -18 13 10 19 l30 7 -35 1 c-30 1 -32 3 -17 12 11 6 30 9 43 6
25 -4 58 13 60 32 1 6 2 13 3 16 2 10 24 0 49 -22z m-293 -12 c3 -5 2 -12 -3
-15 -5 -3 -9 1 -9 9 0 17 3 19 12 6z m385 -23 c0 -6 -6 -5 -15 2 -8 7 -15 14
-15 16 0 2 7 1 15 -2 8 -4 15 -11 15 -16z m-340 -32 c0 -2 -7 -7 -16 -10 -8
-3 -12 -2 -9 4 6 10 25 14 25 6z m45 -27 c11 -16 1 -19 -13 -3 -7 8 -8 14 -3
14 5 0 13 -5 16 -11z m219 -21 c-7 -11 -76 -40 -81 -34 -3 2 5 7 18 11 17 6
19 9 8 17 -10 6 -7 7 10 3 13 -4 21 -3 18 2 -3 5 3 9 13 9 10 0 16 -4 14 -8z
m3266 -4 c0 -2 -7 -4 -15 -4 -8 0 -15 4 -15 10 0 5 7 7 15 4 8 -4 15 -8 15
-10z m-3343 -10 c-3 -3 -12 -4 -19 -1 -8 3 -5 6 6 6 11 1 17 -2 13 -5z m-49
-11 c-10 -2 -26 -2 -35 0 -10 3 -2 5 17 5 19 0 27 -2 18 -5z m3345 -26 c-4 -7
1 -8 13 -3 14 5 16 4 8 -4 -6 -6 -18 -8 -27 -4 -21 8 -22 21 -2 21 8 0 11 -5
8 -10z m-20 -24 c-7 -2 -19 -2 -25 0 -7 3 -2 5 12 5 14 0 19 -2 13 -5z m-3213
-23 c0 -5 -12 -10 -27 -9 l-28 1 25 8 c14 4 26 8 28 9 1 1 2 -3 2 -9z m3157
-5 c0 -8 -4 -12 -8 -10 -3 3 -12 -2 -19 -10 -9 -10 -9 -15 -1 -15 6 0 11 -9
11 -20 0 -10 8 -24 18 -29 16 -10 16 -10 -1 -11 -11 0 -21 9 -24 20 -3 11 -9
20 -14 20 -15 0 -10 32 8 52 20 22 30 23 30 3z m44 -4 c-9 -6 -10 -11 -2 -15
6 -4 11 -12 11 -19 0 -12 -29 23 -30 36 0 4 8 7 18 7 13 0 14 -2 3 -9z m69 5
c0 -2 -8 -10 -17 -17 -16 -13 -17 -12 -4 4 13 16 21 21 21 13z m10 -36 c-6
-11 -13 -20 -16 -20 -2 0 0 9 6 20 6 11 13 20 16 20 2 0 0 -9 -6 -20z m-226
-18 c3 7 3 3 0 -9 -4 -18 -1 -23 14 -23 11 0 23 -6 25 -12 3 -8 6 -6 6 5 1 9
6 17 11 17 14 0 6 -53 -8 -58 -7 -2 -12 1 -12 8 0 6 -4 9 -9 6 -16 -10 -41 5
-41 24 0 11 -4 22 -10 25 -5 3 -10 11 -10 17 0 7 5 7 14 -1 11 -9 15 -9 20 1z
m40 -7 c-4 -8 -10 -12 -15 -9 -11 6 -2 24 11 24 5 0 7 -7 4 -15z m136 1 c0 -2
-7 -7 -16 -10 -8 -3 -12 -2 -9 4 6 10 25 14 25 6z m79 -43 c2 -1 -6 -1 -18 0
-11 1 -21 8 -21 15 0 12 3 12 18 1 9 -7 19 -14 21 -16z m-279 2 c0 -9 7 -18
16 -22 13 -5 13 -7 2 -15 -8 -5 -4 -6 13 -3 34 8 45 -16 18 -38 -10 -9 -19
-24 -19 -32 0 -8 -4 -15 -10 -15 -5 0 -10 4 -10 8 0 5 -13 7 -30 4 -38 -5 -83
6 -75 18 8 13 62 13 70 1 6 -11 45 -10 45 1 0 4 -6 8 -12 9 -10 0 -10 2 0 6 6
2 12 9 12 14 0 6 -8 6 -19 -1 -25 -13 -34 -13 -26 0 3 6 1 10 -4 10 -6 0 -11
7 -11 15 0 17 12 19 26 5 7 -7 11 -6 11 5 0 19 -31 20 -46 1 -11 -13 -15 -12
-32 2 -24 21 -24 32 0 25 11 -3 28 0 38 6 26 15 43 13 43 -4z m217 -34 c-7
-17 -17 -28 -22 -24 -4 5 -6 -4 -3 -19 4 -21 2 -25 -11 -20 -13 4 -12 1 3 -16
11 -12 16 -22 12 -22 -4 0 -2 -9 4 -20 6 -11 8 -20 6 -20 -11 0 -46 81 -40 92
4 7 3 8 -4 4 -7 -4 -12 -16 -12 -27 0 -10 -4 -19 -9 -19 -5 0 -11 -6 -14 -14
-4 -9 0 -12 12 -9 18 5 74 -59 113 -129 23 -42 26 -43 39 -15 11 24 13 25 33
12 11 -8 28 -15 38 -15 27 0 31 -18 7 -31 -17 -9 -23 -8 -30 2 -7 11 -15 10
-45 -6 -36 -19 -36 -19 -72 0 -48 26 -57 65 -16 65 50 0 16 15 -43 19 -6 1
-19 8 -27 17 -9 8 -16 11 -16 5 0 -6 11 -18 25 -27 17 -11 25 -25 25 -45 0
-16 -4 -29 -9 -29 -5 0 -14 -14 -21 -30 -19 -47 -28 -44 -24 8 4 37 2 42 -5
25 -6 -13 -12 -23 -13 -23 -2 0 -1 32 0 72 4 68 3 71 -14 57 -13 -10 -16 -10
-10 -1 5 8 -11 2 -34 -13 -34 -22 -40 -23 -31 -7 5 10 17 24 25 32 18 14 22
35 5 24 -6 -3 -29 -1 -51 7 l-40 13 44 17 c24 9 46 15 50 12 4 -2 5 4 1 13 -4
12 4 26 28 46 22 18 27 26 14 22 -17 -6 -18 -5 -7 7 11 12 15 11 26 -3 7 -10
16 -15 19 -11 4 3 7 1 7 -6 0 -7 -9 -15 -20 -18 -11 -3 -20 -9 -20 -14 0 -19
45 10 50 32 5 18 13 24 33 24 15 -1 27 3 27 8 0 9 23 37 28 33 1 -2 -4 -17
-11 -35z m-77 15 c0 -2 -7 -6 -15 -10 -8 -3 -15 -1 -15 4 0 6 7 10 15 10 8 0
15 -2 15 -4z m258 -333 c-1 -10 3 -36 7 -58 l8 -40 -22 27 c-13 16 -18 33 -15
43 6 15 4 16 -14 6 -26 -14 -65 -15 -57 -1 7 11 63 38 82 39 6 1 11 -7 11 -16z
m-103 -51 c-3 -3 -11 0 -18 7 -9 10 -8 11 6 5 10 -3 15 -9 12 -12z m19 -85
c29 -61 33 -80 10 -51 -9 11 -7 3 5 -21 27 -54 83 -196 79 -200 -2 -2 -24 3
-50 12 -43 14 -51 14 -90 -1 -39 -15 -24 -15 36 0 22 5 26 1 39 -43 9 -29 15
-39 16 -25 1 12 5 22 10 22 5 0 8 -11 7 -25 0 -14 -4 -25 -8 -25 -14 0 -9 -20
5 -20 6 0 22 -8 34 -18 18 -14 21 -24 16 -58 l-5 -41 -76 12 c-77 12 -102 29
-102 67 0 10 -6 34 -14 52 -12 28 -20 34 -55 40 -41 6 -41 6 -36 44 3 20 9 90
15 154 10 123 16 146 58 190 l25 27 27 -19 c15 -11 39 -44 54 -73z m-2367 -43
c-3 -3 -12 -4 -19 -1 -8 3 -5 6 6 6 11 1 17 -2 13 -5z m540 -16 c-7 -4 -23 -8
-36 -8 -15 0 -21 -5 -18 -13 4 -10 -4 -14 -24 -14 -15 0 -26 3 -24 7 2 4 -14
6 -35 6 -22 0 -40 -4 -40 -8 0 -4 13 -8 29 -8 36 0 61 -9 61 -21 0 -6 -8 -5
-19 1 -30 15 -64 13 -58 -5 5 -12 2 -12 -18 -3 -20 9 -22 14 -14 29 7 14 6 19
-5 19 -7 0 -17 7 -20 16 -5 14 8 15 113 12 65 -2 114 -6 108 -10z m189 3 c19
-5 52 -5 84 1 34 6 55 6 59 0 3 -6 17 -12 30 -13 14 -2 26 -10 27 -17 1 -7 0
-8 -3 -2 -2 5 -18 10 -34 10 -22 0 -29 -5 -29 -20 0 -14 -7 -21 -22 -22 -57
-4 -93 -4 -98 1 -11 12 -82 41 -100 41 -13 0 -18 5 -14 15 7 17 52 20 100 6z
m-649 -7 c-3 -3 -12 -4 -19 -1 -8 3 -5 6 6 6 11 1 17 -2 13 -5z m220 -12 c-1
-14 -7 -17 -26 -13 l-26 5 25 5 c20 4 15 6 -20 12 l-45 6 47 1 c40 2 47 -1 45
-16z m250 -8 c-3 -3 -12 -4 -19 -1 -8 3 -5 6 6 6 11 1 17 -2 13 -5z m28 -14
c-3 -5 1 -10 9 -10 9 0 16 5 16 11 0 8 6 7 17 -2 12 -10 15 -11 9 -1 -6 10 -1
11 21 6 38 -9 42 -14 11 -14 -15 0 -28 -3 -30 -7 -1 -5 -25 -6 -53 -2 -47 5
-48 6 -25 16 32 15 32 15 25 3z m-285 -16 c0 -2 -14 -4 -31 -4 -16 0 -28 4
-25 9 5 8 56 3 56 -5z m2227 -71 c-3 -10 -5 -4 -5 12 0 17 2 24 5 18 2 -7 2
-21 0 -30z m0 -55 c-3 -7 -5 -2 -5 12 0 14 2 19 5 13 2 -7 2 -19 0 -25z
m-3877 -2 c0 -2 -8 -10 -17 -17 -16 -13 -17 -12 -4 4 13 16 21 21 21 13z m60
-12 c0 -3 -10 -19 -22 -37 -19 -27 -29 -32 -58 -31 -66 3 -67 3 -46 19 26 20
37 19 30 -2 -5 -16 -4 -15 10 1 26 33 86 67 86 50z m40 -9 c-7 -8 -18 -15 -24
-15 -6 0 -2 7 8 15 25 19 32 19 16 0z m3784 -35 c-5 -5 -10 3 -11 18 -1 22 0
24 9 8 6 -10 6 -22 2 -26z m-1015 26 c-2 -2 -26 -6 -54 -9 -34 -4 -42 -3 -25
3 25 8 87 13 79 6z m-2977 -38 c-7 -7 -12 -8 -12 -2 0 14 12 26 19 19 2 -3 -1
-11 -7 -17z m173 -8 c-3 -5 2 -10 11 -10 10 0 15 -3 11 -6 -3 -3 -15 -3 -28 1
-17 6 -19 9 -8 16 18 11 22 11 14 -1z m3824 -43 c1 -5 -4 -5 -11 -1 -8 5 -9 2
-3 -12 5 -10 9 -31 9 -46 1 -14 4 -30 9 -34 10 -11 9 -44 -3 -44 -6 0 -6 -9 0
-26 6 -14 11 -46 12 -72 1 -43 2 -41 8 18 7 72 7 94 -4 128 -4 13 -3 22 3 22
26 0 25 -215 -2 -232 -8 -5 -11 -31 -9 -84 2 -67 1 -76 -13 -70 -9 3 -23 6
-31 6 -11 0 -14 20 -14 94 0 100 16 334 26 376 6 23 7 24 14 5 5 -11 9 -24 9
-28z m31 22 c0 -11 -4 -18 -10 -14 -5 3 -7 12 -3 20 7 21 13 19 13 -6z m-1171
7 c-10 -9 -69 -36 -69 -32 0 7 52 35 64 36 5 0 7 -2 5 -4z m-1686 -23 c-7 -2
-19 -2 -25 0 -7 3 -2 5 12 5 14 0 19 -2 13 -5z m860 0 c-13 -2 -33 -2 -45 0
-13 2 -3 4 22 4 25 0 35 -2 23 -4z m831 -2 c3 -4 -4 -17 -16 -27 -13 -12 -18
-13 -12 -4 5 8 9 18 10 23 3 15 4 17 8 17 3 0 7 -4 10 -9z m-1376 -8 c-10 -2
-26 -2 -35 0 -10 3 -2 5 17 5 19 0 27 -2 18 -5z m392 -3 c-20 -13 -33 -13 -25
0 3 6 14 10 23 10 15 0 15 -2 2 -10z m-316 -15 c-4 -8 -10 -15 -15 -15 -5 0
-9 7 -9 15 0 8 7 15 15 15 9 0 12 -6 9 -15z m251 7 l-30 -4 40 -12 40 -12 -60
-1 c-42 -1 -54 2 -40 8 13 6 -2 8 -48 6 -37 -1 -67 1 -67 5 0 7 74 14 155 15
32 0 34 -1 10 -5z m263 1 c-10 -2 -28 -2 -40 0 -13 2 -5 4 17 4 22 1 32 -1 23
-4z m-540 -29 c7 -8 18 -11 24 -8 6 4 14 1 18 -6 11 -18 130 -21 123 -3 -3 7
2 13 11 13 9 0 16 -4 16 -9 0 -5 14 -7 31 -4 20 3 29 1 25 -6 -5 -7 19 -10 71
-9 43 1 94 -4 113 -9 34 -11 33 -11 -25 -13 -49 -1 -56 -3 -36 -11 13 -5 57
-7 98 -5 61 4 72 2 64 -8 -15 -18 27 -26 121 -22 46 1 82 -3 98 -11 30 -16 86
-17 95 -2 5 7 12 6 23 -3 34 -27 63 -38 96 -38 18 0 39 -6 45 -14 10 -12 83
-33 102 -28 3 0 5 -11 4 -26 -2 -15 0 -19 2 -9 3 11 14 17 32 17 33 0 51 16
51 46 0 14 10 26 29 34 16 6 39 22 52 36 31 33 46 30 54 -8 5 -26 33 -75 71
-127 2 -1 13 4 26 13 35 25 64 20 78 -13 6 -16 10 -39 8 -52 -4 -28 -60 -68
-97 -70 -22 -2 -23 -2 -5 -6 48 -9 29 -83 -20 -83 -12 0 -27 -4 -35 -9 -10 -7
-23 -3 -39 10 -14 10 -33 19 -43 19 -10 0 -25 13 -33 28 -14 26 -46 61 -46 49
0 -2 7 -17 15 -33 8 -15 13 -30 11 -31 -10 -10 -86 53 -87 71 -1 14 -3 16 -6
5 -3 -12 -15 -14 -62 -11 -32 2 -81 -1 -109 -7 -61 -13 -80 -7 -93 27 -5 14
-12 22 -15 19 -3 -2 1 -21 9 -40 15 -34 14 -35 -9 -46 -31 -14 -91 -14 -99 -1
-4 6 -11 8 -16 4 -16 -9 23 -33 54 -34 18 0 26 -4 21 -11 -3 -6 -19 -9 -34 -6
-15 3 -32 1 -39 -6 -8 -8 -11 -8 -11 0 0 6 6 14 13 16 7 3 6 6 -5 6 -9 1 -19
-3 -22 -8 -8 -13 -42 -6 -39 8 2 7 -15 10 -50 9 -43 -1 -45 -2 -14 -5 38 -4
53 -23 17 -23 -11 0 -20 -6 -20 -12 0 -9 -3 -8 -10 2 -7 12 -15 13 -39 3 -22
-8 -31 -8 -35 1 -3 6 -3 -1 0 -16 4 -18 2 -28 -6 -28 -6 0 -8 5 -5 10 3 6 -1
17 -9 26 -9 8 -16 11 -16 6 0 -13 -39 -22 -46 -11 -3 5 -13 9 -22 9 -13 0 -13
-2 4 -15 18 -14 18 -14 -8 -15 -15 0 -30 5 -33 10 -3 6 -1 10 6 10 7 0 10 3 7
6 -3 3 -16 -1 -27 -8 -18 -11 -23 -11 -31 2 -9 13 -14 8 -12 -11 1 -4 -6 -5
-16 -3 -21 5 -49 -12 -39 -23 5 -4 12 -1 17 7 8 13 11 13 22 0 7 -8 9 -11 4
-7 -5 4 -18 0 -28 -10 -22 -20 -24 -41 -2 -22 15 12 16 11 10 -9 -6 -19 -4
-22 22 -22 16 0 32 -3 36 -7 13 -14 36 -11 36 5 0 13 3 12 15 -4 8 -11 14 -14
15 -6 0 8 12 12 33 11 17 -1 37 -1 42 1 6 1 12 1 15 0 3 -1 42 -3 88 -5 60 -2
87 2 97 11 18 19 25 18 25 -3 0 -15 2 -16 9 -3 6 8 7 18 4 23 -3 5 0 8 8 5 7
-2 16 -15 20 -29 5 -17 7 -19 8 -6 1 10 -4 27 -9 38 -7 13 -7 19 -1 19 6 0 13
-11 17 -25 5 -20 11 -24 26 -19 14 4 18 2 14 -5 -4 -6 -14 -11 -22 -11 -8 0
-12 -4 -9 -10 3 -5 19 -10 36 -10 40 0 38 -27 -3 -45 -18 -8 -26 -14 -18 -15
24 0 60 29 60 48 0 16 73 82 91 82 14 0 46 -78 38 -93 -7 -12 -2 -14 22 -13
17 1 35 9 40 19 21 36 79 3 79 -45 0 -28 -59 -88 -86 -88 -13 0 -24 -4 -24
-10 0 -5 7 -10 15 -10 10 0 15 -10 15 -29 0 -34 -15 -48 -34 -31 -29 23 -76
29 -118 14 -56 -19 -57 -19 -78 29 -23 49 -27 33 -6 -18 8 -19 20 -35 26 -35
6 0 9 -4 6 -9 -9 -14 -126 41 -126 59 0 13 -1 13 -10 0 -8 -12 -10 -10 -11 10
-2 24 -2 24 -6 3 -3 -16 -12 -23 -26 -23 -12 0 -29 -5 -37 -11 -11 -7 -5 -8
22 -3 33 5 38 3 53 -23 12 -22 14 -23 10 -5 -8 27 -5 27 40 2 19 -11 35 -17
35 -14 0 3 7 -2 15 -10 12 -12 14 -20 5 -36 -14 -27 -28 -25 -64 8 -28 25 -29
25 -11 2 11 -13 26 -30 34 -36 15 -12 7 -34 -13 -34 -6 0 -47 17 -89 38 l-77
37 15 28 c18 34 3 36 -20 1 -13 -20 -19 -23 -31 -13 -8 6 -14 7 -14 2 0 -6
-11 -8 -24 -6 -25 5 -106 -33 -106 -50 0 -4 -10 -5 -22 -2 -19 5 -20 4 -8 -5
12 -9 5 -10 -31 -6 -29 3 -50 1 -59 -7 -10 -10 -10 -8 -1 10 15 30 14 33 -9
33 -11 0 -20 -5 -20 -11 0 -5 -10 -3 -22 5 -33 23 -41 20 -22 -9 9 -14 14 -29
10 -33 -4 -4 -12 1 -17 11 -6 9 -17 17 -25 17 -8 0 -13 4 -9 9 3 5 0 13 -6 17
-7 4 -9 3 -6 -3 7 -11 -28 -46 -55 -56 -10 -4 -18 -2 -18 3 0 6 -5 10 -11 10
-5 0 -8 -4 -5 -9 3 -5 -14 -11 -38 -13 -35 -2 -42 0 -34 10 6 7 8 16 4 20 -4
4 -17 -4 -27 -17 -20 -24 -21 -24 -49 -7 -28 16 -30 16 -25 -1 3 -10 -1 -5 -8
10 l-13 28 -14 -26 c-7 -14 -15 -23 -18 -20 -3 2 1 11 8 20 17 21 5 31 -17 14
-14 -12 -16 -12 -8 0 5 9 4 12 -3 7 -6 -4 -22 0 -35 9 -25 16 -86 23 -104 12
-6 -4 -19 0 -29 8 -10 8 -28 15 -40 15 -11 0 -25 5 -32 12 -9 9 -12 9 -12 0 0
-7 5 -12 11 -12 5 0 7 -4 4 -10 -4 -6 8 -10 29 -10 48 0 54 -16 17 -52 -17
-17 -31 -34 -31 -39 0 -4 -13 -3 -30 2 -36 13 -36 13 -9 47 l21 27 -21 3 c-25
4 -26 6 -5 38 10 15 23 23 31 19 8 -3 20 -2 26 2 7 4 2 9 -13 13 -19 5 -25 12
-23 31 1 16 -5 7 -20 -25 l-22 -48 -62 5 c-34 2 -60 0 -57 -4 3 -5 0 -9 -6 -9
-6 0 -15 12 -20 26 -14 35 -13 36 9 24 31 -16 48 -12 22 6 -28 20 -51 72 -51
116 0 32 51 128 68 128 4 0 16 -11 26 -25 26 -34 43 -32 21 3 l-18 27 25 -23
c14 -13 28 -37 32 -53 4 -19 15 -33 33 -41 16 -7 29 -13 31 -14 1 -1 -2 -13
-7 -27 -6 -15 -6 -29 -2 -32 5 -2 12 12 16 32 5 28 3 38 -9 45 -9 5 -16 19
-15 31 0 12 3 16 6 10 5 -15 33 -18 33 -4 0 14 37 20 49 8 19 -19 37 8 20 29
-12 16 -12 17 1 9 24 -15 52 -17 44 -3 -4 7 -3 8 5 4 6 -4 25 -11 41 -16 24
-7 28 -6 23 8 -6 14 -4 14 17 -1 31 -22 41 -21 33 1 -5 14 -3 15 8 5 20 -19
31 -15 19 6 -14 27 -13 36 5 21 8 -6 19 -9 24 -5 6 3 8 0 5 -8 -3 -8 2 -17 10
-20 10 -4 16 -1 16 8 0 8 4 15 10 15 5 0 7 8 4 18 -5 13 -4 14 4 3 6 -8 8 -25
6 -38 -3 -15 -1 -22 6 -18 5 3 10 12 10 19 0 7 9 25 21 40 11 14 16 26 10 26
-5 0 -13 -4 -16 -10 -9 -15 -25 -12 -25 4 0 7 -7 19 -15 26 -9 7 -13 15 -11
17 2 3 13 -4 24 -15 12 -12 30 -18 47 -17 24 3 25 2 12 -13 -26 -32 -31 -48
-7 -27 l23 20 -8 -23 c-6 -22 -6 -23 17 -11 12 7 41 13 63 14 29 0 39 4 37 15
-3 10 2 9 17 -4 19 -17 21 -17 21 -3 0 10 5 17 11 17 6 0 8 -10 5 -22 -3 -13
-3 -17 0 -10 5 10 9 10 22 0 9 -7 13 -8 10 -3 -3 6 -2 19 3 30 7 19 8 19 8 -2
1 -13 6 -23 11 -23 8 0 9 37 1 79 -1 2 -8 -2 -16 -9 -8 -7 -15 -9 -15 -5 0 4
8 13 17 20 15 11 15 13 -5 19 -13 5 -20 12 -16 19 4 7 3 8 -2 4 -5 -5 -10 -21
-10 -35 -3 -40 -3 -42 -13 -42 -6 0 -8 9 -6 20 2 11 -1 23 -7 26 -7 4 -8 2 -4
-4 4 -7 4 -12 -1 -12 -4 0 -19 -3 -32 -7 -14 -3 -22 -2 -19 3 3 5 -1 16 -10
24 -14 13 -15 12 -9 -3 4 -11 1 -17 -8 -17 -8 0 -15 4 -15 9 0 4 -15 8 -34 7
-19 0 -32 -4 -29 -8 2 -5 -5 -8 -16 -8 -12 0 -21 5 -21 11 0 5 -5 7 -10 4 -6
-4 -7 -12 -3 -18 4 -7 0 -7 -10 1 -9 8 -21 11 -27 7 -5 -3 -10 1 -10 9 0 9 -4
16 -8 16 -5 0 -9 -7 -9 -15 0 -8 4 -15 9 -15 5 0 6 -5 2 -12 -4 -6 -3 -8 3 -5
6 4 14 0 17 -9 10 -25 1 -27 -19 -4 -10 11 -24 20 -32 20 -7 0 -13 8 -14 18 0
11 -2 12 -6 4 -4 -10 -9 -10 -23 3 -16 14 -18 14 -31 -1 -12 -15 -11 -16 10
-9 16 5 21 4 17 -4 -9 -15 -39 -14 -54 1 -9 9 -12 9 -12 0 0 -16 -102 -16
-119 1 -11 10 -12 9 -6 -1 5 -10 0 -13 -21 -10 -38 4 -42 26 -7 39 31 12 73
47 73 62 0 6 -11 0 -25 -13 -33 -31 -80 -30 -128 1 -25 16 -37 32 -38 49 -1
17 -3 19 -6 8 -5 -21 -29 -22 -61 -4 l-24 13 31 13 c17 7 38 10 46 6 10 -4 14
-2 9 5 -6 11 -35 8 -81 -6 -18 -6 -23 -3 -23 9 0 22 -50 42 -62 24 -4 -7 -8
-18 -8 -23 0 -6 -28 -17 -62 -25 -47 -10 -70 -22 -98 -50 -21 -21 -51 -45 -68
-55 -17 -10 -35 -28 -41 -39 -8 -17 -9 -12 -5 20 10 70 -44 126 -101 104 -19
-7 -23 -6 -18 5 3 8 9 15 14 15 5 0 9 4 9 9 0 5 -25 11 -56 13 -52 4 -74 17
-74 43 0 6 5 3 10 -5 7 -11 10 -11 10 -2 0 8 5 10 12 6 8 -5 9 -2 5 9 -7 20 4
22 21 5 6 -6 24 -12 39 -13 15 -1 69 -7 118 -13 129 -16 225 9 225 57 0 11 9
21 22 24 12 4 19 9 16 13 -4 3 -1 13 7 21 12 11 19 12 37 2 35 -19 87 -12 127
15 33 23 43 25 126 22 49 -2 91 -8 93 -14 3 -11 82 -6 136 10 31 10 35 13 20
19 -17 6 -17 8 6 17 24 10 24 11 3 11 -29 1 -38 18 -14 26 12 3 18 12 15 20
-6 15 58 29 126 28 19 0 28 2 20 5 -8 3 -19 11 -23 18 -9 16 -87 19 -87 4 0
-5 -4 -10 -10 -10 -19 0 -10 21 13 30 27 11 76 3 95 -16z m-298 12 c0 -3 -4
-8 -10 -11 -5 -3 -10 -1 -10 4 0 6 5 11 10 11 6 0 10 -2 10 -4z m726 -9 c4 -4
-16 -7 -44 -7 -29 0 -52 4 -52 9 0 10 86 8 96 -2z m-326 -11 c0 -2 -11 -6 -25
-8 -14 -3 -25 -1 -25 3 0 5 11 9 25 9 14 0 25 -2 25 -4z m1781 -20 c49 4 65 1
89 -16 15 -11 35 -20 43 -20 29 0 29 -20 0 -21 -33 -1 -77 -17 -53 -19 8 -1
26 -3 40 -5 14 -2 44 -5 68 -6 25 -1 40 -5 35 -10 -5 -5 -43 -5 -87 1 -43 5
-83 7 -88 4 -6 -4 -14 0 -19 7 -6 10 -9 11 -9 2 0 -8 -12 -13 -27 -12 l-28 1
25 8 c24 8 24 8 -7 9 -17 1 -34 7 -36 14 -3 7 -6 5 -6 -5 -1 -20 -16 -24 -26
-8 -4 6 -10 8 -15 5 -4 -3 -5 5 -2 17 5 19 7 20 10 6 2 -10 8 -18 14 -18 5 0
7 7 4 16 -3 8 -3 28 1 42 3 15 8 22 10 16 3 -8 25 -10 64 -8z m-3223 -21 c-3
-3 -9 2 -12 12 -6 14 -5 15 5 6 7 -7 10 -15 7 -18z m1795 18 c-7 -2 -19 -2
-25 0 -7 3 -2 5 12 5 14 0 19 -2 13 -5z m1306 -48 c0 -14 -4 -10 -14 14 -19
42 -19 50 0 25 8 -10 14 -28 14 -39z m-472 7 c-29 -31 -87 -67 -87 -55 0 4 19
21 43 37 23 17 46 36 50 44 5 7 11 11 15 8 3 -4 -6 -19 -21 -34z m-452 18 c3
-5 1 -10 -4 -10 -6 0 -11 5 -11 10 0 6 2 10 4 10 3 0 8 -4 11 -10z m269 -5
c-7 -16 -24 -21 -24 -6 0 8 7 13 27 20 1 1 0 -6 -3 -14z m-524 -5 c-20 -13
-33 -13 -25 0 3 6 14 10 23 10 15 0 15 -2 2 -10z m125 0 c3 -6 -1 -7 -9 -4
-18 7 -21 14 -7 14 6 0 13 -4 16 -10z m445 -4 c0 -2 -8 -10 -17 -17 -16 -13
-17 -12 -4 4 13 16 21 21 21 13z m-2428 -39 c9 -7 18 -31 20 -53 3 -33 8 -41
36 -53 23 -11 31 -19 26 -30 -4 -9 -8 -29 -9 -46 -2 -33 -30 -112 -45 -130 -7
-9 -26 -10 -67 -3 -59 9 -73 3 -73 -33 0 -11 -11 -18 -30 -21 -16 -3 -30 -1
-30 4 0 4 10 9 23 9 16 1 17 3 5 6 -9 2 -20 13 -23 24 -4 10 -17 22 -30 25
-13 3 -26 13 -30 21 -5 14 -3 14 12 2 15 -13 16 -12 9 6 -18 46 -16 55 12 56
l27 1 -27 11 c-65 30 -92 76 -77 131 11 41 39 48 71 19 17 -15 20 -15 49 13
27 25 30 26 20 7 -6 -13 -9 -23 -7 -23 3 0 12 13 20 29 18 33 45 47 59 29 6
-10 7 -9 4 4 -11 32 10 30 55 -5z m3561 19 c15 -4 27 -13 27 -22 0 -12 6 -15
28 -10 20 5 23 4 12 -3 -8 -6 -38 -8 -67 -6 -38 3 -53 0 -57 -10 -4 -11 4 -14
35 -11 30 3 42 -1 47 -12 3 -9 1 -17 -5 -19 -16 -6 -4 -41 16 -46 11 -3 10 -5
-6 -6 -12 0 -23 5 -26 12 -3 6 -4 2 -4 -10 1 -12 5 -19 9 -17 4 3 8 -2 8 -10
0 -9 5 -16 10 -16 6 0 10 -15 10 -32 0 -23 -3 -29 -9 -19 -6 9 -8 2 -7 -20 2
-19 -2 -40 -7 -47 -9 -11 -15 -39 -20 -94 -1 -9 -6 -14 -11 -11 -5 4 -7 -1 -3
-12 5 -11 1 -22 -10 -30 -16 -12 -16 -14 1 -31 10 -10 37 -22 60 -28 l42 -11
-41 -102 c-23 -57 -46 -99 -50 -95 -5 4 -4 -2 0 -13 29 -69 55 -162 49 -175
-6 -17 -9 -35 -18 -135 -10 -107 -26 -173 -42 -179 -17 -6 -18 -2 -3 22 9 14
4 37 -19 107 -29 85 -29 92 -14 115 13 22 14 23 0 12 -13 -11 -21 2 -57 98
-46 125 -47 131 -25 206 8 30 14 60 11 67 -2 6 -7 -3 -11 -20 -6 -25 -13 -33
-29 -33 -12 -1 -33 -7 -46 -14 l-24 -13 36 -14 c31 -11 36 -16 31 -36 -3 -12
-1 -36 4 -53 6 -16 8 -29 4 -29 -19 3 -33 -2 -27 -10 3 -5 1 -12 -5 -16 -5 -3
-10 0 -11 7 0 7 -4 4 -9 -7 -8 -19 -9 -19 -9 3 -1 33 -18 27 -25 -9 -5 -26 -9
-29 -20 -20 -12 10 -17 8 -26 -9 -11 -21 -12 -21 -25 -3 -16 24 -30 105 -17
101 6 -2 10 2 11 7 1 6 -4 10 -11 10 -6 0 -19 25 -29 55 -20 66 -41 116 -79
191 -30 57 -53 139 -65 223 -6 47 -6 49 17 43 13 -4 35 -7 51 -7 16 0 27 -5
27 -14 0 -7 7 -19 15 -26 17 -14 20 -62 5 -91 -9 -16 -7 -19 14 -19 14 0 28
-5 31 -10 4 -6 3 -10 -2 -9 -4 1 -19 1 -32 0 -19 -1 -21 -4 -11 -15 6 -8 17
-14 23 -12 7 1 9 1 5 -1 -13 -7 -9 -33 5 -33 20 -1 -19 -20 -46 -22 -21 -2
-23 -5 -15 -23 5 -12 18 -26 29 -33 17 -11 19 -9 19 18 0 16 5 30 11 30 5 0 7
-4 4 -10 -7 -11 14 -55 22 -46 3 3 1 11 -5 19 -7 8 -8 18 -1 27 9 13 10 13 8
0 -1 -8 3 -26 10 -40 11 -24 11 -24 7 8 -6 38 9 43 18 6 6 -21 11 -25 30 -20
15 4 28 0 36 -8 6 -9 26 -14 46 -13 30 2 34 5 30 22 -5 20 -5 20 9 1 11 -14
15 -16 15 -5 0 11 2 12 9 0 6 -9 12 3 21 39 7 31 17 49 24 47 46 -20 41 -12
-11 14 -48 24 -63 37 -63 53 0 11 20 79 45 150 34 99 45 144 45 191 0 60 11
87 34 80 6 -2 23 -6 39 -9z m-1203 -32 c0 -2 -9 -4 -20 -4 -11 0 -20 4 -20 9
0 5 9 7 20 4 11 -3 20 -7 20 -9z m-1250 2 c0 -3 -4 -8 -10 -11 -5 -3 -10 -1
-10 4 0 6 5 11 10 11 6 0 10 -2 10 -4z m1143 -23 c-7 -2 -19 -2 -25 0 -7 3 -2
5 12 5 14 0 19 -2 13 -5z m1074 -8 c-18 -13 -17 -14 5 -17 13 -3 -5 -4 -40 -2
-34 1 -65 -2 -68 -7 -3 -5 -12 -9 -20 -9 -8 0 -13 4 -10 9 6 10 -37 20 -93 23
-63 2 52 15 154 16 79 1 88 0 72 -13z m83 5 c0 -5 -15 -9 -32 -9 l-33 1 30 8
c17 4 31 8 33 9 1 0 2 -3 2 -9z m-120 -34 c0 -2 -7 -7 -16 -10 -8 -3 -12 -2
-9 4 6 10 25 14 25 6z m496 -124 c-12 -11 -17 7 -9 34 l8 29 3 -28 c2 -16 1
-31 -2 -35z m-3689 -19 c-3 -18 -26 -63 -27 -52 0 10 22 69 26 69 2 0 3 -8 1
-17z m573 -8 c0 -9 -34 -45 -42 -45 -9 0 -11 54 -2 63 7 6 44 -9 44 -18z
m2699 5 c-27 -16 -172 -30 -186 -18 -9 7 -13 7 -13 0 0 -6 9 -14 20 -17 11 -3
20 -11 20 -16 0 -6 3 -8 8 -5 4 2 16 -2 27 -10 28 -21 0 -17 -45 6 -54 27 -55
57 -2 63 79 8 187 6 171 -3z m408 -37 c-3 -10 -5 -2 -5 17 0 19 2 27 5 18 2
-10 2 -26 0 -35z m-3588 1 c2 -2 -14 -3 -37 -2 -23 1 -42 5 -42 10 0 8 69 1
79 -8z m3101 -14 c0 -13 -20 -13 -40 0 -12 8 -9 10 13 10 15 0 27 -4 27 -10z
m324 -15 c-4 -8 -13 -15 -22 -15 -13 0 -12 3 4 15 24 18 25 18 18 0z m170 -36
c-3 -5 0 -18 8 -27 12 -15 11 -16 -4 -4 -16 13 -22 56 -6 46 5 -3 6 -10 2 -15z
m-564 -9 c0 -5 -4 -10 -10 -10 -5 0 -10 5 -10 10 0 6 5 10 10 10 6 0 10 -4 10
-10z m-1360 -40 c0 -4 -9 -6 -21 -3 -15 4 -17 8 -8 14 14 8 29 3 29 -11z m745
10 c3 -5 1 -10 -4 -10 -6 0 -11 5 -11 10 0 6 2 10 4 10 3 0 8 -4 11 -10z m65
-34 c-36 -50 -79 -76 -78 -48 0 9 -2 24 -6 33 -5 11 1 19 18 27 19 8 26 8 30
-1 2 -7 5 -5 5 5 1 15 17 24 49 27 8 1 0 -17 -18 -43z m-785 14 c3 -5 1 -10
-4 -10 -6 0 -11 5 -11 10 0 6 2 10 4 10 3 0 8 -4 11 -10z m-215 -25 c14 -19
14 -19 -2 -6 -10 7 -18 18 -18 24 0 6 1 8 3 6 1 -2 9 -13 17 -24z m100 10 c0
-2 -6 -5 -13 -8 -8 -3 -14 1 -14 8 0 7 6 11 14 8 7 -3 13 -6 13 -8z m480 0 c0
-8 -4 -15 -10 -15 -5 0 -7 7 -4 15 4 8 8 15 10 15 2 0 4 -7 4 -15z m-897 -12
c-3 -7 -9 -10 -14 -7 -14 8 -11 21 5 21 8 0 12 -6 9 -14z m2389 -18 c1 -5 -11
-13 -28 -16 l-29 -7 28 -1 c15 0 27 -6 27 -12 0 -5 -4 -8 -9 -5 -5 4 -8 -21
-5 -56 l3 -63 -10 54 c-5 30 -12 57 -16 60 -3 3 -3 -10 1 -30 7 -39 -4 -83
-19 -77 -6 2 -14 -26 -18 -62 -4 -36 -9 -78 -11 -94 -3 -15 -9 -33 -15 -39 -6
-6 -11 -20 -11 -31 0 -10 -3 -17 -6 -13 -3 3 -1 27 4 54 6 26 18 104 27 173
25 198 22 188 56 181 17 -3 31 -10 31 -16z m-2604 -3 c8 -6 2 -9 -18 -9 -20 0
-26 3 -18 9 7 4 15 8 18 8 3 0 11 -4 18 -8z m36 -22 c-6 -6 -10 -3 -10 10 0
13 4 16 10 10 7 -7 7 -13 0 -20z m-157 14 c-3 -3 -12 -4 -19 -1 -8 3 -5 6 6 6
11 1 17 -2 13 -5z m2153 -69 c0 -8 -4 -15 -9 -15 -5 0 -11 7 -15 15 -3 9 0 15
9 15 8 0 15 -7 15 -15z m-570 -30 c0 -8 -4 -15 -10 -15 -5 0 -10 7 -10 15 0 8
5 15 10 15 6 0 10 -7 10 -15z m-1757 -27 c6 -22 5 -22 -8 -4 -17 22 -20 40 -6
32 5 -3 11 -16 14 -28z m-622 -58 l7 25 1 -27 c1 -15 6 -30 13 -34 7 -5 9 -2
5 9 -8 22 13 36 41 26 28 -11 29 -42 0 -69 -12 -11 -25 -20 -29 -20 -3 0 -23
-14 -45 -30 -45 -36 -50 -31 -60 55 -7 56 -7 57 16 50 21 -7 22 -5 16 21 l-6
29 17 -30 17 -30 7 25z m339 22 c0 -5 -9 -17 -20 -27 -11 -10 -20 -24 -20 -32
0 -11 4 -11 20 -3 18 10 20 8 20 -20 0 -33 -3 -35 -30 -20 -23 12 -35 62 -20
89 10 20 50 30 50 13z m2024 -6 c-3 -8 -12 -12 -21 -9 -12 5 -12 7 -1 14 20
13 28 11 22 -5z m1114 -61 l1 -20 -9 20 c-5 11 -8 31 -8 45 l0 25 8 -25 c4
-14 8 -34 8 -45z m19 18 c-3 -10 -5 -2 -5 17 0 19 2 27 5 18 2 -10 2 -26 0
-35z m-4641 -5 c16 -16 16 -21 4 -28 -13 -8 -13 -10 0 -10 13 0 13 -1 0 -10
-8 -5 -22 -10 -30 -10 -13 0 -13 1 0 11 11 7 -2 8 -45 4 -43 -5 -56 -3 -45 4
10 7 11 11 3 11 -22 0 -3 26 30 42 37 17 59 14 83 -14z m3415 4 c-6 -11 -7
-23 -3 -27 4 -5 1 -5 -5 -1 -8 4 -13 2 -14 -6 0 -10 -2 -10 -6 -1 -2 7 4 23
14 37 21 28 30 27 14 -2z m-3531 14 c0 -11 -19 -15 -25 -6 -3 5 1 10 9 10 9 0
16 -2 16 -4z m3600 -4 c0 -5 -7 -17 -16 -28 -15 -18 -15 -18 -5 2 6 12 7 24 4
28 -3 3 -1 6 5 6 7 0 12 -4 12 -8z m823 -16 c4 -10 0 -12 -15 -8 -15 4 -17 7
-6 13 17 11 15 11 21 -5z m239 -18 c-8 -8 -9 -4 -5 13 4 13 8 18 11 10 2 -7
-1 -18 -6 -23z m-4509 -23 c4 -8 3 -16 -1 -19 -4 -3 -9 4 -9 15 -2 23 3 25 10
4z m3347 -14 c0 -5 -7 -12 -16 -15 -14 -5 -15 -4 -4 9 14 17 20 19 20 6z
m-3433 -7 c-3 -3 -12 -4 -19 -1 -8 3 -5 6 6 6 11 1 17 -2 13 -5z m4109 -105
c-4 -4 -5 -17 -1 -30 5 -17 4 -21 -3 -14 -8 7 -9 36 -4 85 l7 75 5 -55 c3 -30
1 -58 -4 -61z m-4159 95 c-3 -3 -12 -4 -19 -1 -8 3 -5 6 6 6 11 1 17 -2 13 -5z
m3533 -14 c-8 -5 -19 -10 -25 -10 -5 0 -3 5 5 10 8 5 20 10 25 10 6 0 3 -5 -5
-10z m-1883 -80 c17 0 16 5 -3 38 l-16 27 25 -27 c14 -16 31 -28 36 -28 11 0
49 -15 155 -64 57 -26 70 -28 74 -16 3 8 22 32 42 53 31 30 45 37 78 37 35 0
45 -6 79 -44 21 -24 60 -81 85 -127 47 -82 47 -83 30 -112 -25 -42 -68 -63
-98 -46 -28 14 -30 22 -9 39 19 16 19 61 -1 86 -14 18 -15 18 -4 -4 19 -38 9
-75 -25 -91 -26 -13 -38 -12 -104 5 l-75 19 1 60 c2 56 1 57 -7 20 -12 -58
-28 -96 -56 -133 -31 -39 -38 -36 -130 49 -35 33 -69 59 -76 59 -7 0 -2 -7 10
-16 12 -8 20 -19 17 -24 -3 -4 1 -11 7 -14 7 -3 -7 -3 -32 0 -39 4 -41 3 -20
-6 13 -6 37 -10 51 -8 16 1 36 -5 49 -17 19 -17 21 -26 15 -77 -5 -41 -2 -71
10 -107 18 -55 13 -96 -11 -87 -10 4 -12 2 -8 -5 4 -7 1 -10 -7 -7 -8 3 -13
11 -11 17 1 7 -2 10 -7 7 -5 -4 -12 -2 -16 4 -3 5 -11 10 -17 10 -6 0 -3 -11
6 -25 17 -25 16 -25 -9 -21 -28 5 -33 -5 -10 -24 17 -14 20 -30 6 -30 -5 0
-22 -5 -38 -12 -15 -6 -35 -13 -43 -14 -8 -1 -42 -7 -74 -13 -65 -11 -124 -3
-189 27 -34 15 -37 20 -32 47 3 16 18 56 34 90 16 33 32 83 37 110 7 48 7 49
15 20 4 -16 11 -43 14 -59 13 -60 87 -114 145 -106 35 4 25 15 -15 15 -44 0
-87 26 -83 49 0 6 -4 23 -10 38 -8 20 -8 43 -1 84 16 85 25 103 82 158 49 48
87 122 87 170 0 9 6 16 13 16 8 0 9 3 1 8 -6 4 -14 25 -17 47 l-7 40 22 -42
c12 -24 28 -43 35 -43z m1808 50 c-27 -12 -43 -12 -25 0 8 5 22 9 30 9 10 0 8
-3 -5 -9z m-484 -57 c77 -34 85 -41 75 -56 -10 -13 -15 -14 -26 -4 -9 9 -9 6
1 -11 12 -20 12 -24 -4 -33 -9 -6 -24 -24 -32 -42 -14 -29 -14 -30 0 -13 8 11
15 23 15 27 0 4 12 14 26 24 23 15 28 15 40 3 12 -12 12 -19 -2 -47 -12 -24
-15 -53 -12 -111 2 -44 2 -80 0 -80 -17 0 -62 38 -67 57 -6 24 -81 79 -101 75
-7 -1 -38 26 -69 60 -32 35 -52 53 -46 41 9 -19 9 -23 -2 -23 -19 0 -39 24
-29 35 4 5 2 5 -5 2 -6 -4 -14 -1 -16 5 -4 10 -6 10 -6 1 -1 -17 39 -53 58
-53 9 0 36 -20 61 -44 25 -24 50 -41 56 -39 7 2 18 -5 26 -16 8 -12 18 -18 21
-14 4 3 7 -3 7 -15 0 -11 -7 -22 -15 -24 -10 -2 -12 -7 -5 -17 7 -12 12 -11
29 10 19 23 20 23 27 4 4 -11 16 -26 26 -33 10 -7 18 -19 18 -27 0 -8 6 -12
14 -9 8 3 17 1 21 -5 3 -6 0 -9 -8 -5 -8 3 -17 -2 -20 -10 -4 -9 -1 -16 5 -16
6 0 1 -11 -12 -25 -16 -17 -34 -25 -58 -25 -30 0 -45 10 -109 76 -62 63 -74
80 -69 100 6 24 6 25 -43 28 -8 1 -16 7 -19 15 -4 11 -6 11 -14 0 -7 -10 -8
-7 -5 10 3 13 1 35 -4 48 -5 14 -11 48 -14 75 -5 66 -15 74 -15 14 0 -28 -4
-45 -10 -41 -5 3 -23 -1 -40 -10 -31 -16 -56 -12 -44 7 5 7 2 8 -5 3 -8 -4
-29 10 -58 41 -24 27 -43 42 -41 35 5 -21 71 -86 114 -114 34 -21 74 -57 63
-57 -2 0 -26 7 -53 15 -27 8 -51 13 -53 11 -2 -2 35 -16 83 -30 l87 -27 -73
-72 c-54 -52 -82 -90 -104 -139 l-31 -66 -74 24 c-41 13 -76 22 -78 20 -2 -2
11 -9 31 -16 42 -14 57 -49 60 -147 2 -63 2 -65 -20 -60 -13 2 -21 0 -18 -4 3
-5 11 -9 19 -9 19 0 25 -23 25 -94 0 -65 -3 -71 -64 -116 -13 -10 -17 -10 -12
-2 4 6 5 12 3 12 -6 0 -106 -67 -127 -85 -19 -16 -80 -28 -80 -15 0 5 5 12 10
15 6 4 2 18 -10 36 -22 31 -17 39 9 15 20 -17 61 -30 61 -19 0 5 -13 30 -30
56 -16 26 -30 49 -30 51 0 2 11 2 25 1 34 -4 41 12 16 39 -26 28 -26 32 2 41
19 6 15 9 -25 19 -25 6 -49 14 -52 19 -3 4 -3 5 0 3 3 -2 19 0 36 4 77 23 133
-28 148 -133 l9 -62 -4 65 c-3 36 -7 76 -9 90 -3 14 -19 108 -36 210 -30 182
-30 185 -12 210 11 14 39 33 63 43 24 10 32 15 17 12 -24 -5 -32 1 -58 37 -16
24 -35 49 -41 56 -19 23 -91 153 -87 157 10 10 205 26 357 29 142 3 165 5 173
20 5 10 24 26 41 37 48 30 122 21 228 -28z m1744 37 c3 -5 1 -10 -4 -10 -6 0
-11 5 -11 10 0 6 2 10 4 10 3 0 8 -4 11 -10z m-1265 -15 c0 -6 -56 -35 -67
-35 -14 1 39 40 53 40 8 0 14 -2 14 -5z m967 -17 c-3 -8 -6 -5 -6 6 -1 11 2
17 5 13 3 -3 4 -12 1 -19z m256 2 c-3 -12 -8 -19 -11 -16 -5 6 5 36 12 36 2 0
2 -9 -1 -20z m-2833 -16 c-6 -11 -41 -7 -54 6 -7 7 2 9 24 7 19 -3 33 -8 30
-13z m635 7 c3 -6 -3 -9 -14 -8 -11 0 -17 5 -15 9 7 11 22 10 29 -1z m1029
-54 c-25 -45 -64 -88 -64 -70 0 10 78 113 85 113 2 0 -7 -20 -21 -43z m837 20
c-10 -9 -11 -8 -5 6 3 10 9 15 12 12 3 -3 0 -11 -7 -18z m300 -8 c-5 -13 -10
-19 -10 -12 -1 15 10 45 15 40 3 -2 0 -15 -5 -28z m-4637 4 c-14 -10 -14 -12
3 -22 17 -10 16 -10 -4 -11 -17 0 -21 5 -18 21 3 17 0 19 -18 14 -16 -5 -18
-4 -8 3 7 5 24 9 37 8 21 -1 22 -3 8 -13z m142 -40 c-3 -3 -12 -1 -19 5 -8 7
-18 8 -22 4 -5 -4 -5 -1 -1 6 5 9 12 9 27 1 12 -6 18 -13 15 -16z m3291 -2
c-6 -17 -14 -28 -19 -25 -4 3 -5 -1 -2 -9 5 -13 -18 -26 -53 -31 -7 0 -18 -10
-26 -20 -13 -18 -14 -18 -12 5 1 13 8 23 14 21 7 -1 10 2 6 8 -4 6 4 19 17 30
13 11 18 19 11 20 -6 0 -20 -10 -30 -23 -29 -36 -46 -43 -32 -14 12 27 34 40
94 55 22 5 41 10 42 11 1 0 -4 -12 -10 -28z m-3504 4 c-3 -9 -8 -14 -10 -11
-3 3 -2 9 2 15 9 16 15 13 8 -4z m112 -4 c-3 -6 -11 -11 -16 -11 -5 0 -4 6 3
14 14 16 24 13 13 -3z m1089 3 c3 -9 6 -17 6 -20 0 -3 -76 -26 -132 -40 -25
-5 -28 -3 -28 19 0 19 4 24 18 21 9 -2 40 5 67 15 65 24 62 24 69 5z m-604
-16 l52 -12 -7 -70 c-18 -199 -21 -225 -34 -258 -16 -42 -22 -34 -8 10 15 45
15 61 -1 87 -11 18 -12 17 -6 -9 5 -21 4 -27 -5 -22 -6 4 -11 16 -11 27 0 24
-15 25 -30 2 -9 -14 -10 -7 -6 32 2 28 0 59 -5 70 -8 17 -8 15 -4 -7 3 -15 -1
-43 -9 -62 -8 -19 -13 -36 -11 -38 2 -2 -3 -25 -10 -53 l-14 -50 0 52 c-1 28
5 82 13 120 8 37 17 96 21 131 4 34 11 62 15 62 5 0 32 -5 60 -12z m-480 -12
c0 -2 -7 -7 -16 -10 -8 -3 -12 -2 -9 4 6 10 25 14 25 6z m125 -6 c3 -6 -1 -7
-9 -4 -18 7 -21 14 -7 14 6 0 13 -4 16 -10z m-81 -9 c3 -5 -2 -15 -11 -22 -13
-11 -15 -11 -9 -1 6 10 1 11 -21 7 -27 -6 -27 -6 -9 9 22 18 42 21 50 7z
m3189 -30 c-2 -24 1 -42 8 -47 9 -5 10 -2 6 9 -12 33 8 16 25 -20 9 -20 12
-31 5 -24 -16 16 -27 13 -22 -6 3 -10 -2 -2 -11 17 -15 32 -17 33 -25 15 -4
-11 -8 -17 -8 -12 -1 4 -1 10 -2 15 0 4 -6 14 -12 22 -10 13 -10 13 4 2 14
-11 17 -9 21 12 3 14 0 27 -6 29 -14 6 -38 -41 -25 -48 4 -3 6 -12 2 -20 -3
-10 -20 -15 -49 -15 -37 0 -43 -3 -38 -17 5 -15 4 -15 -4 -3 -12 15 -5 68 11
88 5 6 19 12 31 12 17 0 18 -2 6 -9 -8 -6 -19 -7 -25 -4 -5 4 -7 2 -2 -2 17
-19 45 -14 61 11 9 13 21 22 26 19 6 -4 10 -1 10 4 0 6 4 11 9 11 4 0 6 -18 4
-39z m-3146 15 c4 -7 18 -18 30 -25 18 -9 22 -8 26 7 3 10 5 7 6 -10 1 -27 1
-27 -34 -12 -32 13 -34 13 -28 -3 3 -10 3 -15 -1 -12 -12 11 -25 69 -16 69 5
0 13 -6 17 -14z m3357 -11 c-9 -14 -18 -25 -21 -25 -5 0 5 18 20 38 17 22 18
13 1 -13z m-358 -20 c-13 -37 -31 -62 -21 -30 3 11 -1 7 -9 -10 -8 -16 -15
-25 -16 -20 0 6 -7 1 -15 -9 -14 -19 -15 -18 -15 10 0 43 35 94 64 94 23 0 23
-1 12 -35z m-2069 19 c-3 -3 -12 -4 -19 -1 -8 3 -5 6 6 6 11 1 17 -2 13 -5z
m1578 -3 c-3 -5 -1 -12 5 -16 5 -3 10 2 11 12 0 10 7 -2 14 -27 8 -24 12 -46
10 -48 -2 -2 -22 14 -45 36 -39 39 -40 41 -18 45 13 2 24 5 26 6 2 0 1 -3 -3
-8z m-1588 -16 c-1 -1 -17 -12 -34 -24 l-33 -22 0 23 c0 19 5 23 35 24 19 0
34 0 32 -1z m2329 -11 c-9 -6 -12 -15 -8 -20 4 -4 -1 -2 -10 5 -22 16 -17 27
12 27 18 0 19 -2 6 -12z m-16 -56 c0 -14 -19 1 -31 25 -12 22 -12 22 10 3 11
-11 21 -23 21 -28z m1253 22 c-3 -12 -8 -19 -11 -16 -5 6 5 36 12 36 2 0 2 -9
-1 -20z m-1496 -32 c-3 -8 -6 -5 -6 6 -1 11 2 17 5 13 3 -3 4 -12 1 -19z
m1031 9 c8 -10 2 -13 -31 -13 -23 -1 -34 1 -24 3 9 3 15 9 12 14 -9 14 31 11
43 -4z m-3561 -49 c-2 -13 -4 -5 -4 17 -1 22 1 32 4 23 2 -10 2 -28 0 -40z
m1687 11 l27 -41 -25 -23 c-14 -13 -28 -36 -31 -52 -4 -15 -9 -34 -11 -42 -2
-7 1 -20 7 -27 8 -10 8 -23 -1 -49 -7 -20 -9 -42 -6 -50 4 -11 -3 -13 -31 -9
-48 6 -63 20 -63 60 0 38 13 43 44 17 20 -17 20 -17 7 0 -10 12 -10 17 -2 17
7 0 9 5 5 11 -3 6 -14 9 -24 6 -11 -3 -40 16 -81 53 -61 54 -63 58 -51 84 14
32 51 35 77 6 10 -11 22 -17 26 -14 5 3 6 -1 4 -8 -3 -7 15 -33 40 -58 54 -53
61 -42 8 13 -25 25 -34 41 -25 44 6 3 12 11 12 19 0 8 4 14 10 14 5 0 20 16
32 35 13 19 24 35 24 35 1 0 13 -18 28 -41z m-1225 -8 c-13 -17 -27 -31 -31
-31 -5 0 -7 -4 -4 -8 2 -4 1 -14 -5 -22 -7 -12 -9 -10 -9 7 0 12 6 26 13 30 7
4 21 21 31 36 9 16 20 26 23 24 2 -3 -5 -19 -18 -36z m3018 33 c-3 -3 -12 -4
-19 -1 -8 3 -5 6 6 6 11 1 17 -2 13 -5z m-1307 -50 c0 -26 4 -34 18 -34 14 0
62 -57 62 -74 0 -3 -19 1 -41 9 -48 17 -57 18 -44 6 6 -5 40 -18 77 -30 36
-12 72 -28 78 -36 14 -17 25 -114 16 -148 -3 -13 -15 -27 -26 -30 -23 -6 -24
-2 -8 44 12 34 12 34 19 9 6 -20 7 -17 8 17 1 23 -4 45 -10 48 -6 4 -9 1 -7
-6 1 -8 -7 -37 -19 -65 l-23 -52 -57 3 c-32 2 -66 6 -75 10 -9 4 -21 4 -25 2
-5 -3 -15 -2 -23 3 -8 5 -21 5 -31 -1 -11 -6 -19 -5 -21 2 -2 5 -13 11 -26 12
-12 0 -22 5 -22 10 0 4 -4 5 -10 2 -5 -3 -10 -2 -10 3 0 4 -10 19 -22 32 -20
21 -20 26 -9 69 13 49 36 89 76 135 l26 28 50 -26 c57 -29 59 -30 59 -17 0 5
-20 17 -45 27 -25 9 -45 20 -45 24 0 21 84 74 103 63 4 -2 7 -20 7 -39z m-794
16 l61 -12 -11 -39 c-5 -21 -14 -39 -19 -39 -5 0 -32 18 -59 40 -28 22 -54 40
-59 40 -5 0 -6 6 -3 14 3 8 11 13 17 11 7 -2 39 -8 73 -15z m2 -90 c12 -8 22
-20 22 -27 0 -6 12 -20 26 -30 l25 -19 -34 -74 c-44 -95 -61 -111 -107 -101
-35 7 -35 7 -7 13 15 3 27 1 27 -4 0 -5 9 -4 20 2 19 10 19 13 5 40 -22 42 -9
120 17 104 7 -5 8 -2 4 5 -5 7 -1 20 8 29 9 11 12 23 7 31 -7 11 -12 8 -23
-10 -61 -99 -81 -129 -86 -124 -3 2 -12 -1 -21 -8 -14 -11 -14 -10 -2 6 7 9
10 17 5 17 -5 0 5 9 21 20 26 17 27 25 2 21 -4 -1 -3 8 3 19 6 11 13 20 16 20
3 0 2 -5 -2 -12 -4 -6 -3 -8 3 -5 6 4 8 18 5 32 -2 14 0 25 6 25 15 0 21 37 8
50 -14 14 19 2 52 -20z m107 -40 c21 -22 34 -40 28 -40 -6 0 -13 5 -15 10 -2
6 -13 12 -26 13 -12 0 -22 7 -22 14 0 6 -5 15 -12 19 -7 5 -8 3 -3 -6 5 -8 4
-11 -3 -6 -11 7 -6 36 7 36 4 0 25 -18 46 -40z m-1475 -82 c0 -29 9 -42 37
-56 14 -8 23 -25 28 -54 4 -24 14 -55 21 -70 17 -32 18 -48 3 -48 -5 0 -8 3
-6 8 3 4 -14 8 -36 8 -44 1 -119 13 -126 20 -2 2 16 4 40 5 24 1 55 4 69 8 21
6 18 8 -22 14 -26 4 -61 4 -78 1 -35 -7 -35 -8 -19 83 12 67 37 103 71 103 12
0 18 -8 18 -22z m1442 -10 c-18 -18 -14 -32 5 -17 14 12 14 10 -1 -13 -21 -32
-28 -36 -19 -11 5 12 3 14 -7 8 -8 -5 -6 4 6 23 10 17 20 29 23 27 2 -3 -1
-11 -7 -17z m2078 -13 c0 -10 -16 -4 -40 16 l-25 20 33 -16 c17 -8 32 -18 32
-20z m-2960 -5 c0 -16 -3 -31 -7 -31 -64 -10 -75 -9 -63 6 9 10 9 15 1 15 -10
0 -15 -13 -13 -31 1 -4 -10 -9 -23 -12 -48 -9 -20 25 50 61 52 28 55 27 55 -8z
m1104 -12 c4 -17 2 -28 -4 -28 -5 0 -10 14 -10 32 0 36 4 35 14 -4z m200 -14
c3 -8 0 -13 -7 -11 -13 2 -27 17 -27 29 0 12 28 -3 34 -18z m1778 -58 c43 -36
83 -66 89 -66 29 0 89 -25 115 -47 18 -15 22 -22 11 -19 -12 4 -17 1 -15 -9 2
-7 -1 -14 -6 -13 -5 0 -12 -4 -15 -9 -3 -5 -19 -17 -34 -26 -29 -19 -64 -16
-163 14 -17 5 -40 9 -52 9 -28 0 -37 17 -12 25 11 3 20 10 20 15 0 13 -34 30
-59 30 -12 0 -21 5 -21 10 0 6 9 10 19 10 23 0 37 16 19 23 -10 3 -10 7 0 19
9 11 10 18 2 23 -6 3 -8 10 -6 13 2 4 -4 18 -14 32 -17 22 -17 25 -2 36 21 15
30 11 124 -70z m-2181 21 c-27 -28 -33 -19 -14 22 14 28 18 30 26 16 7 -13 4
-23 -12 -38z m-910 -20 c-9 -9 -14 -8 -22 3 -8 12 -9 12 -7 -4 2 -14 -5 -21
-25 -27 -16 -4 -25 -4 -21 2 3 5 12 9 19 9 8 0 12 6 9 14 -3 9 -13 12 -22 9
-9 -4 -14 -3 -10 2 11 12 82 22 87 12 2 -5 -2 -14 -8 -20z m1116 26 c-4 -3 -2
-12 4 -20 8 -9 8 -13 1 -13 -6 0 -14 5 -17 10 -6 10 2 30 12 30 4 0 3 -3 0 -7z
m-111 -27 c-1 -18 -4 -22 -13 -14 -9 7 -10 2 -2 -24 6 -18 13 -41 16 -50 3
-10 9 -18 15 -18 5 0 4 9 -2 21 -18 33 -7 36 24 7 26 -26 27 -28 8 -28 -12 0
-24 -5 -27 -11 -9 -14 -102 -1 -133 19 -24 15 -24 16 30 32 36 12 48 19 37 24
-33 14 -8 65 32 66 12 0 16 -8 15 -24z m84 -8 c0 -6 -7 -5 -15 2 -8 7 -15 17
-15 22 0 6 7 5 15 -2 8 -7 15 -17 15 -22z m-1195 12 c3 -5 1 -10 -4 -10 -6 0
-11 5 -11 10 0 6 2 10 4 10 3 0 8 -4 11 -10z m800 -1 c11 -16 1 -19 -13 -3 -7
8 -8 14 -3 14 5 0 13 -5 16 -11z m139 -14 c-9 -14 -18 -25 -21 -25 -5 0 5 18
20 38 17 22 18 13 1 -13z m214 0 c6 -14 10 -25 8 -25 -2 0 -11 11 -20 25 -9
14 -13 25 -8 25 5 0 14 -11 20 -25z m345 -2 c-7 -2 -19 -2 -25 0 -7 3 -2 5 12
5 14 0 19 -2 13 -5z m1581 -18 c-4 -8 -11 -15 -16 -15 -6 0 -5 6 2 15 7 8 14
15 16 15 2 0 1 -7 -2 -15z m-2964 -21 c0 -20 -3 -24 -12 -16 -7 5 -24 12 -38
15 l-25 4 27 2 c15 0 30 6 33 11 10 17 15 11 15 -16z m1120 6 c0 -5 -5 -10
-11 -10 -5 0 -7 5 -4 10 3 6 8 10 11 10 2 0 4 -4 4 -10z m289 -11 c-14 -8 -29
-3 -29 11 0 4 9 6 21 3 15 -4 17 -8 8 -14z m-89 -20 c0 -4 -7 -6 -15 -3 -8 4
-15 10 -15 15 0 4 7 6 15 3 8 -4 15 -10 15 -15z m-187 -19 c4 -17 0 -20 -31
-20 -26 0 -33 3 -23 9 8 5 21 6 30 3 14 -5 14 -3 2 11 -11 15 -11 17 2 17 8 0
17 -9 20 -20z m201 -9 c3 -5 -2 -15 -12 -22 -15 -12 -16 -12 -5 2 7 9 10 19 6
22 -3 4 -4 7 0 7 3 0 8 -4 11 -9z m-1744 -29 c-7 -3 -19 3 -28 13 -16 15 -15
16 12 4 15 -7 23 -15 16 -17z m1714 13 c-4 -8 -8 -15 -10 -15 -2 0 -4 7 -4 15
0 8 4 15 10 15 5 0 7 -7 4 -15z m-599 -15 c-3 -5 -2 -10 4 -10 18 0 34 -40 22
-54 -14 -16 -2 -29 14 -16 9 7 16 6 25 -5 9 -10 9 -15 1 -15 -6 0 -11 -5 -11
-11 0 -8 4 -8 15 1 8 6 19 9 26 5 6 -4 3 4 -6 19 -10 15 -16 28 -14 30 2 2 28
-10 57 -26 44 -25 52 -35 52 -58 0 -16 -5 -32 -12 -36 -7 -4 -8 -3 -4 5 4 6 2
24 -5 40 l-13 28 -43 -14 c-60 -21 -56 -39 7 -35 33 3 50 0 50 -8 0 -7 -8 -9
-20 -5 -11 4 -20 2 -20 -4 0 -6 0 -14 0 -18 0 -5 13 -8 29 -9 17 0 28 3 25 8
-3 4 -1 8 4 8 13 0 22 -25 22 -58 0 -27 -33 -85 -73 -129 -17 -19 -31 -23 -76
-23 -79 0 -122 15 -157 52 -16 18 -21 26 -12 19 14 -11 19 -8 32 17 8 16 12
33 8 37 -4 5 -1 5 6 1 7 -4 12 -1 12 9 0 9 -4 14 -8 11 -4 -2 -9 4 -9 15 -1
10 7 24 18 29 10 6 19 17 19 25 0 17 -26 20 -36 4 -3 -6 -15 -8 -26 -6 -11 3
-18 3 -15 0 3 -2 -2 -13 -11 -22 -9 -10 -23 -26 -30 -37 -7 -10 -3 0 8 23 11
23 22 52 23 65 3 14 15 26 38 34 l34 12 -27 7 c-23 6 -28 13 -28 39 0 32 3 34
63 36 9 1 15 5 12 10 -3 4 1 11 7 13 21 9 30 8 23 -3z m639 -8 c3 -5 -1 -9 -9
-9 -8 0 -12 4 -9 9 3 4 7 8 9 8 2 0 6 -4 9 -8z m-1701 -9 c-7 -2 -19 -2 -25 0
-7 3 -2 5 12 5 14 0 19 -2 13 -5z m1687 -24 c0 7 4 10 9 6 5 -3 12 -1 16 5 3
5 14 10 23 10 13 0 14 -2 4 -9 -11 -6 -8 -12 10 -27 37 -29 42 -53 16 -79 -13
-12 -38 -39 -57 -59 -19 -20 -38 -36 -43 -36 -4 0 -18 -15 -29 -32 -12 -18
-18 -24 -14 -13 5 16 4 18 -6 8 -19 -19 -25 -16 -38 16 -12 28 -10 31 58 101
39 40 71 80 71 89 0 11 -3 12 -8 4 -9 -14 -36 4 -40 27 -1 10 2 9 13 -4 8 -11
15 -14 15 -7z m-1094 -15 c22 -8 51 -21 67 -27 48 -21 30 -39 -39 -39 -37 0
-52 6 -75 28 -32 30 -38 50 -13 40 8 -3 12 -2 9 4 -9 14 7 12 51 -6z m1304 -2
c0 -5 -7 -17 -15 -28 -14 -18 -14 -17 -4 9 12 27 19 34 19 19z m73 -51 c37
-34 47 -64 25 -77 -6 -4 -8 -3 -5 3 8 13 -35 25 -47 13 -4 -4 -15 -6 -24 -3
-9 4 -13 2 -9 -3 3 -6 2 -16 -4 -24 -6 -11 -9 -8 -9 13 0 16 -5 37 -10 48 -8
15 -8 19 2 17 8 -2 14 9 16 30 4 37 8 36 65 -17z m-116 17 c-3 -8 -6 -5 -6 6
-1 11 2 17 5 13 3 -3 4 -12 1 -19z m1530 16 c-3 -3 -12 -4 -19 -1 -8 3 -5 6 6
6 11 1 17 -2 13 -5z m-60 -10 c-3 -3 -12 -4 -19 -1 -8 3 -5 6 6 6 11 1 17 -2
13 -5z m-2567 -14 c0 -12 -35 -31 -44 -23 -8 9 14 33 30 33 8 0 14 -4 14 -10z
m533 -75 c-5 -26 -7 -27 -14 -10 -4 11 -8 31 -8 45 -1 21 1 22 13 10 9 -10 12
-26 9 -45z m-558 25 c-10 -11 -21 -18 -23 -15 -3 3 3 12 14 20 27 20 30 18 9
-5z m2342 14 c-3 -3 -12 -4 -19 -1 -8 3 -5 6 6 6 11 1 17 -2 13 -5z m-87 -9
c0 -2 -10 -9 -22 -15 -22 -11 -22 -10 -4 4 21 17 26 19 26 11z m37 -1 c-3 -3
-12 -4 -19 -1 -8 3 -5 6 6 6 11 1 17 -2 13 -5z m-1067 -39 c-7 -8 -17 -15 -22
-15 -11 0 14 29 26 30 5 0 3 -7 -4 -15z m395 -5 c-3 -4 3 -7 13 -6 9 0 16 -5
14 -12 -1 -8 2 -11 7 -8 5 3 14 0 20 -7 8 -11 2 -17 -25 -28 -47 -18 -59 -49
-38 -94 9 -20 14 -51 12 -77 l-4 -43 -56 0 c-31 0 -54 -3 -51 -7 8 -13 -12 -9
-36 8 -31 22 -85 22 -198 -2 -39 -8 -26 -25 15 -20 21 2 45 0 53 -5 11 -7 10
-9 -5 -9 -11 0 -51 -11 -90 -24 -39 -14 -90 -27 -113 -31 -38 -5 -43 -3 -64
27 -13 19 -16 27 -7 20 20 -16 37 3 19 21 -16 16 -14 30 3 24 11 -4 13 -1 9
11 -6 15 -5 15 10 3 11 -9 17 -10 17 -2 0 6 10 11 22 11 11 0 37 12 57 27 20
16 39 29 44 29 4 1 10 3 15 4 4 1 10 2 15 1 4 -1 13 10 19 24 6 14 15 25 20
25 5 0 7 4 4 9 -7 11 64 61 86 61 9 0 18 10 21 21 4 16 11 20 27 16 17 -4 19
-3 10 8 -9 11 -7 12 9 8 12 -3 21 -1 21 5 0 5 7 13 16 16 9 3 2 -11 -16 -34
l-32 -41 41 22 c22 11 41 27 41 35 0 7 15 17 33 22 34 9 51 6 42 -8z m-770
-100 c16 -25 22 -39 13 -33 -11 10 -17 10 -28 0 -12 -10 -12 -9 -2 5 10 12 10
18 1 24 -7 4 -9 3 -6 -3 4 -5 -2 -19 -13 -30 -10 -12 -17 -23 -14 -25 2 -3 0
-16 -5 -29 -9 -23 -10 -23 -10 -2 -1 38 -21 37 -21 -1 0 -19 -4 -37 -9 -41 -6
-3 -8 11 -6 32 4 34 3 35 -6 13 -6 -14 -17 -29 -25 -33 -8 -5 -12 -12 -9 -17
3 -5 0 -12 -6 -16 -7 -4 -9 -3 -6 3 4 6 0 13 -8 17 -8 3 -17 1 -20 -4 -3 -5
-12 -7 -19 -4 -9 3 -18 -6 -25 -23 -8 -20 -10 -21 -7 -5 2 12 0 22 -5 22 -5 0
-9 -10 -9 -22 0 -25 -20 -63 -20 -40 0 7 -4 10 -10 7 -6 -4 -7 1 -3 11 5 13 3
15 -8 9 -8 -5 -5 3 7 16 40 45 35 54 -5 10 -22 -24 -38 -47 -35 -52 3 -5 10
-6 16 -3 7 4 8 2 4 -5 -6 -9 -11 -9 -21 -1 -12 10 -10 19 11 52 14 22 22 43
18 46 -4 4 -9 1 -11 -6 -3 -6 -9 -10 -14 -7 -5 4 -6 0 -4 -7 3 -8 -1 -22 -9
-33 -10 -12 -15 -15 -16 -7 0 7 -5 10 -10 7 -6 -4 -8 -11 -5 -16 4 -5 -3 -9
-14 -9 -11 0 -23 4 -26 10 -4 6 1 7 11 3 13 -5 15 -3 9 8 -4 8 -5 11 0 7 4 -4
21 10 36 32 17 23 34 37 42 34 8 -3 20 2 27 11 7 8 17 15 22 15 5 0 40 27 76
60 37 33 71 60 76 60 5 0 -3 -10 -18 -21 -15 -12 -25 -23 -22 -26 7 -8 76 48
76 61 0 7 6 18 12 24 10 10 14 8 19 -11 3 -12 19 -43 34 -67z m-647 -5 c-3 -3
-9 2 -12 12 -6 14 -5 15 5 6 7 -7 10 -15 7 -18z m410 13 c-6 -18 -28 -21 -28
-4 0 9 7 16 16 16 9 0 14 -5 12 -12z m293 -35 c13 -16 12 -17 -3 -4 -10 7 -18
15 -18 17 0 8 8 3 21 -13z m-436 -124 c-4 -6 -14 -8 -22 -5 -8 3 -11 1 -8 -4
7 -11 -35 -23 -61 -18 -14 2 -12 6 10 16 22 10 26 10 20 0 -3 -7 6 1 22 18 22
24 31 28 37 17 4 -7 5 -18 2 -24z m210 1 c-4 -6 -1 -19 6 -28 12 -16 12 -16
-5 0 -16 14 -15 38 0 38 3 0 2 -5 -1 -10z m-380 -10 c3 -6 -1 -7 -9 -4 -18 7
-21 14 -7 14 6 0 13 -4 16 -10z m747 -15 c2 3 5 -2 5 -10 0 -19 0 -19 -23 7
-12 14 -13 18 -3 10 9 -6 18 -10 21 -7z m-775 -17 c-3 -8 -6 -5 -6 6 -1 11 2
17 5 13 3 -3 4 -12 1 -19z m171 -10 c7 -7 12 -16 12 -21 0 -5 -7 -1 -16 8 -10
10 -19 12 -23 7 -10 -16 -93 -19 -99 -4 -3 10 7 13 42 11 25 -2 48 0 52 4 10
10 18 9 32 -5z m42 -28 c0 -5 -5 -10 -11 -10 -5 0 -7 5 -4 10 3 6 8 10 11 10
2 0 4 -4 4 -10z m538 -97 c-10 -2 -26 -2 -35 0 -10 3 -2 5 17 5 19 0 27 -2 18
-5z"/>
<path d="M1234 3692 c4 -3 14 -7 22 -8 9 -1 13 0 10 4 -4 3 -14 7 -22 8 -9 1
-13 0 -10 -4z"/>
<path d="M2610 3791 c0 -6 4 -13 10 -16 6 -3 7 1 4 9 -7 18 -14 21 -14 7z"/>
<path d="M2456 3097 c3 -10 9 -15 12 -12 3 3 0 11 -7 18 -10 9 -11 8 -5 -6z"/>
<path d="M2848 3073 c7 -3 16 -2 19 1 4 3 -2 6 -13 5 -11 0 -14 -3 -6 -6z"/>
<path d="M1419 3523 c-13 -16 -12 -17 4 -4 16 13 21 21 13 21 -2 0 -10 -8 -17
-17z"/>
<path d="M4450 3180 c-9 -6 -10 -10 -3 -10 6 0 15 5 18 10 8 12 4 12 -15 0z"/>
<path d="M4640 2846 c0 -2 7 -7 16 -10 8 -3 12 -2 9 4 -6 10 -25 14 -25 6z"/>
<path d="M4575 2546 c-28 -12 -29 -13 -8 -18 14 -4 28 1 39 13 20 22 11 23
-31 5z"/>
<path d="M2708 2773 c7 -3 16 -2 19 1 4 3 -2 6 -13 5 -11 0 -14 -3 -6 -6z"/>
<path d="M2758 2773 c7 -3 16 -2 19 1 4 3 -2 6 -13 5 -11 0 -14 -3 -6 -6z"/>
<path d="M3010 2777 c0 -12 94 -49 98 -38 2 6 24 11 50 11 69 0 44 10 -34 14
-38 2 -79 7 -91 11 -13 4 -23 5 -23 2z"/>
<path d="M3670 2298 c-14 -6 -20 -12 -14 -15 7 -2 10 -13 7 -24 -5 -19 12 -49
27 -49 13 0 20 43 8 57 -17 20 7 15 25 -5 10 -10 17 -24 17 -30 0 -7 6 -12 14
-12 27 0 13 36 -24 62 -29 21 -40 24 -60 16z"/>
<path d="M1923 2243 c9 -2 25 -2 35 0 9 3 1 5 -18 5 -19 0 -27 -2 -17 -5z"/>
<path d="M3861 2176 c-13 -14 -21 -32 -18 -43 4 -16 5 -16 12 3 5 15 14 20 31
18 25 -2 32 10 13 22 -8 4 -7 9 2 15 11 7 11 9 -2 9 -8 0 -26 -11 -38 -24z"/>
<path d="M3190 2059 c0 -5 17 -9 37 -9 20 0 33 3 30 6 -10 11 -67 13 -67 3z"/>
<path d="M3040 2040 c0 -5 16 -10 35 -10 19 0 35 5 35 10 0 6 -16 10 -35 10
-19 0 -35 -4 -35 -10z"/>
<path d="M2903 2033 c9 -2 25 -2 35 0 9 3 1 5 -18 5 -19 0 -27 -2 -17 -5z"/>
<path d="M2887 2010 c-43 -8 -60 -20 -28 -20 14 0 20 -4 16 -12 -4 -7 0 -5 8
5 10 12 29 17 61 17 25 0 46 3 46 8 0 9 -55 11 -103 2z"/>
<path d="M2680 2002 c0 -11 65 -10 76 1 4 4 -11 7 -34 7 -23 0 -42 -4 -42 -8z"/>
<path d="M2776 1998 c3 -4 14 -8 24 -8 10 0 21 4 24 8 3 5 -8 9 -24 9 -16 0
-27 -4 -24 -9z"/>
<path d="M2688 1973 c7 -3 16 -2 19 1 4 3 -2 6 -13 5 -11 0 -14 -3 -6 -6z"/>
<path d="M2040 1940 c-9 -6 -10 -10 -3 -10 6 0 15 5 18 10 8 12 4 12 -15 0z"/>
<path d="M2128 1933 c7 -3 16 -2 19 1 4 3 -2 6 -13 5 -11 0 -14 -3 -6 -6z"/>
<path d="M3476 1799 c-14 -21 -12 -49 5 -49 4 0 5 7 2 17 -4 10 -2 14 5 9 6
-3 14 -1 18 5 4 8 3 9 -4 5 -7 -4 -12 -1 -12 8 0 8 8 17 18 19 15 4 15 5 0 6
-9 0 -24 -9 -32 -20z"/>
<path d="M2136 1797 c3 -10 9 -15 12 -12 3 3 0 11 -7 18 -10 9 -11 8 -5 -6z"/>
<path d="M3308 1798 c8 -8 20 -8 44 -1 l33 11 -44 1 c-34 1 -42 -2 -33 -11z"/>
<path d="M2996 1785 c-9 -26 -7 -32 5 -12 6 10 9 21 6 23 -2 3 -7 -2 -11 -11z"/>
<path d="M2920 1787 c0 -3 12 -12 26 -22 15 -9 23 -12 20 -6 -7 11 -46 35 -46
28z"/>
<path d="M3051 1783 c-1 -6 -4 -20 -7 -30 -5 -17 -5 -17 6 0 6 10 9 23 6 30
-3 9 -5 9 -5 0z"/>
<path d="M3088 1783 c7 -3 16 -2 19 1 4 3 -2 6 -13 5 -11 0 -14 -3 -6 -6z"/>
<path d="M1841 1760 c-34 -17 -34 -17 -13 -29 19 -10 27 -9 49 8 14 12 32 21
39 21 8 0 14 5 14 10 0 15 -51 10 -89 -10z"/>
<path d="M2830 1766 c0 -4 7 -14 15 -22 8 -9 15 -11 15 -6 0 5 -7 15 -15 22
-8 7 -15 9 -15 6z"/>
<path d="M3097 1753 c3 -7 9 -13 14 -13 5 0 9 6 9 13 0 8 -6 14 -14 14 -8 0
-12 -6 -9 -14z"/>
<path d="M3211 1755 c0 -11 4 -27 9 -35 9 -13 10 -13 9 0 0 8 -4 24 -9 35 l-9
20 0 -20z"/>
<path d="M2871 1674 c0 -11 3 -14 6 -6 3 7 2 16 -1 19 -3 4 -6 -2 -5 -13z"/>
<path d="M2637 1652 c-19 -21 -22 -42 -7 -42 6 0 10 8 10 18 0 10 5 23 12 30
7 7 10 12 7 12 -3 0 -13 -8 -22 -18z"/>
<path d="M2514 1642 c11 -12 21 -20 24 -17 3 3 11 0 19 -6 10 -9 13 -8 13 0 0
7 5 9 10 6 13 -8 13 5 0 25 -8 12 -10 12 -10 1 0 -10 -3 -11 -14 -2 -10 9 -16
9 -21 1 -5 -8 -12 -7 -23 2 -12 9 -11 6 2 -10z"/>
<path d="M2597 1639 c4 -13 8 -18 11 -10 2 7 -1 18 -6 23 -8 8 -9 4 -5 -13z"/>
<path d="M2670 1645 c-7 -9 -10 -18 -7 -21 3 -3 10 4 17 15 13 25 8 27 -10 6z"/>
<path d="M2700 1634 c0 -14 3 -15 18 -3 9 7 19 15 21 16 2 2 -5 3 -17 3 -14 0
-22 -6 -22 -16z"/>
<path d="M2147 1613 c-4 -3 -7 -13 -7 -22 1 -13 3 -13 11 2 11 19 8 33 -4 20z"/>
<path d="M2090 1603 c0 -4 5 -15 10 -23 8 -13 10 -13 10 2 0 9 -4 20 -10 23
-5 3 -10 3 -10 -2z"/>
<path d="M2121 1594 c0 -11 3 -14 6 -6 3 7 2 16 -1 19 -3 4 -6 -2 -5 -13z"/>
<path d="M2372 1505 c-11 -12 -10 -15 3 -15 8 0 15 7 15 15 0 18 -2 18 -18 0z"/>
<path d="M2468 1513 c6 -2 18 -2 25 0 6 3 1 5 -13 5 -14 0 -19 -2 -12 -5z"/>
<path d="M2758 1513 c7 -3 16 -2 19 1 4 3 -2 6 -13 5 -11 0 -14 -3 -6 -6z"/>
<path d="M1071 2292 c-23 -11 -35 -25 -36 -40 -1 -19 0 -20 14 -9 30 26 39 28
34 9 -2 -10 2 -24 10 -30 20 -17 41 10 35 43 -3 14 -1 25 4 25 5 0 6 5 3 10
-9 14 -25 12 -64 -8z"/>
<path d="M900 2261 c13 -9 13 -11 -2 -11 -10 0 -18 -7 -18 -15 0 -17 21 -65
29 -66 41 -6 53 -3 61 12 13 24 -28 83 -60 87 -20 2 -22 1 -10 -7z"/>
<path d="M4650 2253 c0 -5 9 -18 20 -28 11 -10 20 -14 20 -8 0 5 -9 18 -20 28
-11 10 -20 14 -20 8z"/>
<path d="M4378 1545 c-2 -3 -3 -19 0 -35 3 -25 7 -28 18 -19 8 6 14 17 14 24
0 14 -24 37 -32 30z"/>
<path d="M4420 1526 c0 -8 5 -18 10 -21 6 -3 10 1 10 9 0 8 -4 18 -10 21 -5 3
-10 -1 -10 -9z"/>
<path d="M4338 2283 c6 -2 18 -2 25 0 6 3 1 5 -13 5 -14 0 -19 -2 -12 -5z"/>
<path d="M4408 2283 c7 -3 16 -2 19 1 4 3 -2 6 -13 5 -11 0 -14 -3 -6 -6z"/>
<path d="M1668 1723 c7 -3 16 -2 19 1 4 3 -2 6 -13 5 -11 0 -14 -3 -6 -6z"/>
<path d="M2187 1403 c-4 -3 -7 -15 -7 -25 0 -19 -19 -18 -78 3 -41 15 -39 8 3
-11 22 -10 52 -19 66 -19 22 -1 25 3 25 29 0 33 0 33 -9 23z"/>
<path d="M1749 1291 c13 -12 28 -21 34 -21 12 0 11 0 -28 24 l-30 17 24 -20z"/>
<path d="M3040 1440 c-11 -11 -19 -32 -19 -47 2 -27 2 -28 6 -3 3 14 14 35 26
48 25 27 15 30 -13 2z"/>
<path d="M3086 1441 c-3 -5 1 -12 10 -15 22 -8 25 -4 9 11 -8 7 -16 9 -19 4z"/>
<path d="M2710 1400 c-8 -5 -13 -10 -10 -11 3 0 15 -2 27 -5 12 -2 23 2 27 11
6 17 -20 20 -44 5z"/>
<path d="M3011 1344 c0 -11 3 -14 6 -6 3 7 2 16 -1 19 -3 4 -6 -2 -5 -13z"/>
<path d="M2530 1285 c-7 -9 -11 -18 -8 -20 3 -3 11 1 18 10 7 9 11 18 8 20 -3
3 -11 -1 -18 -10z"/>
<path d="M2926 1261 c-3 -4 6 -6 19 -3 14 2 25 6 25 8 0 8 -39 4 -44 -5z"/>
<path d="M2510 1224 c0 -14 4 -23 9 -20 5 3 7 15 4 26 -7 28 -13 25 -13 -6z"/>
<path d="M3125 1241 c-8 -15 3 -31 21 -31 9 0 14 7 12 17 -4 20 -24 28 -33 14z
m25 -11 c0 -5 -4 -10 -10 -10 -5 0 -10 5 -10 10 0 6 5 10 10 10 6 0 10 -4 10
-10z"/>
<path d="M2595 1165 c28 -7 61 -13 75 -13 14 0 -2 6 -35 14 -76 17 -107 16
-40 -1z"/>
<path d="M2460 770 c-9 -6 -10 -10 -3 -10 6 0 15 5 18 10 8 12 4 12 -15 0z"/>
<path d="M3482 1381 c-11 -7 -11 -9 1 -14 16 -6 27 0 27 15 0 10 -11 10 -28
-1z"/>
<path d="M3326 1312 c-3 -5 1 -9 9 -9 8 0 12 4 9 9 -3 4 -7 8 -9 8 -2 0 -6 -4
-9 -8z"/>
<path d="M2997 969 c-31 -57 -31 -79 1 -27 19 31 37 78 30 78 -2 0 -16 -23
-31 -51z"/>
<path d="M1930 536 c0 -2 7 -7 16 -10 8 -3 12 -2 9 4 -6 10 -25 14 -25 6z"/>
<path d="M2065 519 c-16 -12 -21 -18 -10 -14 49 18 65 18 65 -2 0 -10 -5 -24
-10 -29 -7 -7 -7 -20 -2 -34 7 -19 10 -20 15 -7 3 9 2 19 -4 23 -6 4 -4 13 6
24 20 22 12 60 -13 60 -9 0 -30 -10 -47 -21z"/>
<path d="M1942 478 c-7 -7 -12 -16 -12 -21 0 -6 -7 -15 -17 -22 -13 -9 -13
-14 -3 -20 8 -5 11 -4 6 3 -10 16 16 20 43 6 28 -15 65 -9 96 14 l20 14 -20
-7 c-41 -15 -55 -17 -80 -11 -32 8 -34 43 -2 49 20 4 20 4 2 6 -12 0 -26 -4
-33 -11z"/>
<path d="M2080 435 c0 -8 4 -15 10 -15 5 0 7 7 4 15 -4 8 -8 15 -10 15 -2 0
-4 -7 -4 -15z"/>
<path d="M3130 485 c-14 -8 -20 -14 -14 -15 5 0 19 7 30 15 24 18 16 19 -16 0z"/>
<path d="M3095 450 c-3 -6 1 -7 9 -4 18 7 21 14 7 14 -6 0 -13 -4 -16 -10z"/>
<path d="M2825 230 c-3 -5 -2 -10 4 -10 5 0 13 5 16 10 3 6 2 10 -4 10 -5 0
-13 -4 -16 -10z"/>
<path d="M2765 220 c4 -6 11 -8 16 -5 14 9 11 15 -7 15 -8 0 -12 -5 -9 -10z"/>
<path d="M2170 309 c0 -5 5 -7 10 -4 6 3 10 8 10 11 0 2 -4 4 -10 4 -5 0 -10
-5 -10 -11z"/>
<path d="M2251 284 c0 -11 3 -14 6 -6 3 7 2 16 -1 19 -3 4 -6 -2 -5 -13z"/>
<path d="M1998 253 c7 -3 16 -2 19 1 4 3 -2 6 -13 5 -11 0 -14 -3 -6 -6z"/>
<path d="M410 1740 c0 -8 25 -20 41 -20 20 0 7 18 -16 22 -14 3 -25 2 -25 -2z"/>
<path d="M315 1610 c-16 -7 -17 -9 -3 -9 9 -1 20 4 23 9 7 11 7 11 -20 0z"/>
</g>
</svg>
